<svg id="svg" version="1.1" xmlns="http://www.w3.org/2000/svg" xmlns:xlink="http://www.w3.org/1999/xlink" width="400" height="400" viewBox="0, 0, 400,400"><g id="svgg"><path id="path0" d="M157.423 38.089 C 157.080 38.578,156.800 39.186,156.800 39.440 C 156.800 40.603,155.398 41.003,150.640 41.200 L 145.800 41.400 145.122 42.758 C 144.046 44.914,143.850 44.988,138.683 45.200 L 133.804 45.400 133.002 46.937 C 132.502 47.896,131.705 48.681,130.885 49.024 C 130.025 49.384,129.370 50.053,128.991 50.960 C 128.235 52.768,127.933 52.922,124.609 53.181 C 121.839 53.397,121.794 53.419,121.002 54.937 C 120.502 55.896,119.705 56.681,118.885 57.024 C 118.025 57.384,117.370 58.053,116.991 58.960 C 116.235 60.768,115.933 60.922,112.609 61.181 C 109.839 61.397,109.794 61.419,109.002 62.937 C 108.502 63.896,107.705 64.681,106.885 65.024 C 106.018 65.387,105.370 66.054,104.981 66.983 C 104.579 67.947,103.946 68.579,102.982 68.982 C 102.017 69.385,101.385 70.017,100.982 70.982 C 100.579 71.946,99.947 72.579,98.983 72.981 C 98.054 73.370,97.387 74.018,97.024 74.885 C 96.681 75.705,95.896 76.502,94.937 77.002 C 93.419 77.794,93.397 77.839,93.181 80.609 C 92.922 83.933,92.768 84.235,90.958 84.992 C 90.017 85.385,89.382 86.025,88.982 86.982 C 88.579 87.947,87.947 88.579,86.982 88.982 C 86.017 89.385,85.385 90.017,84.982 90.982 C 84.579 91.946,83.947 92.579,82.983 92.981 C 82.054 93.370,81.387 94.018,81.024 94.885 C 80.681 95.705,79.896 96.502,78.937 97.002 C 77.411 97.798,77.398 97.825,77.174 100.708 C 76.929 103.856,76.791 104.107,74.758 105.122 C 73.441 105.780,73.393 105.887,73.174 108.706 C 72.929 111.856,72.792 112.107,70.758 113.122 C 69.441 113.780,69.393 113.887,69.174 116.706 C 68.929 119.856,68.792 120.107,66.758 121.122 L 65.400 121.800 65.200 126.681 C 64.988 131.850,64.914 132.046,62.758 133.122 C 61.441 133.780,61.393 133.887,61.174 136.706 C 60.929 139.856,60.792 140.107,58.758 141.122 L 57.400 141.800 57.200 152.681 C 56.986 164.299,57.049 163.978,54.758 165.122 L 53.400 165.800 53.297 188.102 L 53.193 210.404 54.742 211.024 C 57.114 211.972,57.200 212.429,57.200 224.022 L 57.200 234.406 58.746 235.025 C 60.843 235.864,61.200 236.882,61.200 242.022 L 61.200 246.406 62.746 247.025 C 64.843 247.864,65.200 248.882,65.200 254.022 L 65.200 258.406 66.746 259.025 C 68.646 259.785,69.200 260.914,69.200 264.022 L 69.200 266.406 70.788 267.042 C 71.987 267.522,72.501 268.021,72.883 269.080 C 73.258 270.115,73.782 270.639,74.883 271.080 C 75.985 271.521,76.509 272.045,76.883 273.080 C 77.253 274.103,77.783 274.640,78.841 275.063 C 80.640 275.783,81.200 276.961,81.200 280.022 L 81.200 282.406 82.788 283.042 C 83.987 283.522,84.501 284.021,84.883 285.080 C 85.258 286.115,85.782 286.639,86.883 287.080 C 87.985 287.521,88.509 288.045,88.883 289.080 C 89.258 290.115,89.782 290.639,90.883 291.080 C 91.985 291.521,92.509 292.045,92.883 293.080 C 93.256 294.110,93.783 294.640,94.864 295.072 C 95.967 295.514,96.496 296.057,96.966 297.231 L 97.594 298.800 100.097 298.795 C 104.563 298.785,104.400 298.967,104.400 293.982 C 104.400 288.128,104.020 288.400,112.200 288.400 C 118.717 288.400,120.000 288.659,120.000 289.974 C 120.000 291.170,122.202 292.400,124.355 292.406 C 126.932 292.413,127.193 292.540,128.202 294.276 C 128.610 294.977,129.543 295.874,130.274 296.268 C 131.006 296.662,131.700 297.285,131.816 297.652 C 132.508 299.831,133.876 300.400,138.426 300.400 C 142.635 300.400,144.000 300.785,144.000 301.974 C 144.000 303.597,146.127 304.400,150.426 304.400 C 154.635 304.400,156.000 304.785,156.000 305.974 C 156.000 306.148,156.475 306.765,157.055 307.345 L 158.109 308.400 168.213 308.400 L 178.317 308.400 179.572 306.900 C 180.263 306.075,181.009 305.175,181.230 304.900 C 181.507 304.555,182.981 304.400,185.974 304.400 L 190.317 304.400 191.572 302.900 C 192.263 302.075,193.009 301.175,193.230 300.900 C 193.528 300.529,195.781 300.400,201.974 300.400 L 210.317 300.400 211.572 298.900 C 212.263 298.075,213.009 297.175,213.230 296.900 C 213.536 296.519,216.581 296.400,225.974 296.400 L 238.317 296.400 239.572 294.900 C 240.263 294.075,241.009 293.175,241.230 292.900 C 241.521 292.538,243.381 292.400,247.974 292.400 L 254.317 292.400 255.572 290.900 C 256.263 290.075,257.009 289.175,257.230 288.900 C 257.469 288.603,258.581 288.400,259.974 288.400 C 262.454 288.400,262.373 288.454,265.230 284.900 C 265.507 284.555,266.981 284.400,269.974 284.400 L 274.317 284.400 275.572 282.900 C 276.263 282.075,277.009 281.175,277.230 280.900 C 277.469 280.603,278.581 280.400,279.974 280.400 C 282.454 280.400,282.373 280.454,285.230 276.900 C 285.469 276.603,286.581 276.400,287.974 276.400 C 290.454 276.400,290.373 276.454,293.230 272.900 C 293.469 272.603,294.581 272.400,295.974 272.400 C 298.454 272.400,298.373 272.454,301.230 268.900 C 301.467 268.604,302.574 268.400,303.941 268.400 C 305.958 268.400,306.389 268.256,307.343 267.260 L 308.435 266.120 306.024 265.241 C 303.935 264.479,303.569 264.191,303.284 263.081 C 302.986 261.919,301.997 261.127,299.800 260.288 C 299.577 260.203,299.312 257.852,299.200 254.970 L 299.000 249.805 297.600 249.123 C 296.830 248.748,296.020 248.372,295.800 248.288 C 295.558 248.195,295.321 244.522,295.200 238.970 L 295.000 229.806 293.600 229.123 C 292.830 228.748,292.020 228.372,291.800 228.288 C 291.580 228.203,291.310 226.710,291.200 224.969 C 290.988 221.613,290.880 221.464,287.800 220.288 C 287.577 220.203,287.312 217.852,287.200 214.970 L 287.000 209.805 285.600 209.123 C 284.830 208.748,284.020 208.372,283.800 208.288 C 283.577 208.203,283.312 205.852,283.200 202.970 L 283.000 197.805 281.600 197.123 C 280.830 196.748,280.020 196.372,279.800 196.287 C 279.550 196.192,279.325 191.189,279.200 182.970 L 279.000 169.807 277.600 169.124 C 276.830 168.748,276.020 168.372,275.800 168.287 C 275.548 168.191,275.326 162.523,275.200 152.970 L 275.000 137.807 273.600 137.124 C 272.830 136.748,272.020 136.372,271.800 136.288 C 271.565 136.198,271.318 133.188,271.200 128.970 L 271.000 121.806 269.600 121.123 C 268.830 120.748,268.020 120.372,267.800 120.288 C 267.577 120.203,267.312 117.852,267.200 114.970 L 267.000 109.805 265.600 109.123 C 264.830 108.748,264.020 108.372,263.800 108.288 C 263.580 108.203,263.310 106.710,263.200 104.969 C 262.988 101.612,262.883 101.467,259.800 100.288 C 259.580 100.203,259.310 98.710,259.200 96.969 C 258.988 93.612,258.883 93.467,255.800 92.288 C 255.580 92.203,255.310 90.709,255.200 88.967 L 255.000 85.800 253.301 85.032 C 252.043 84.463,251.474 83.908,251.106 82.891 C 250.743 81.887,250.208 81.357,249.117 80.920 C 248.015 80.479,247.491 79.955,247.117 78.920 C 246.742 77.885,246.218 77.361,245.117 76.920 C 244.015 76.479,243.491 75.955,243.117 74.920 C 242.744 73.890,242.217 73.360,241.136 72.928 C 239.335 72.207,239.113 71.752,238.826 68.200 L 238.600 65.400 235.800 65.174 C 232.251 64.887,231.739 64.641,231.117 62.920 C 230.744 61.890,230.218 61.361,229.136 60.928 C 228.060 60.497,227.503 59.940,227.072 58.864 C 226.640 57.783,226.110 57.256,225.080 56.883 C 224.021 56.501,223.522 55.987,223.042 54.788 L 222.406 53.200 220.022 53.200 C 216.914 53.200,215.785 52.646,215.025 50.746 L 214.406 49.200 210.022 49.200 C 204.947 49.200,203.803 48.819,203.108 46.896 C 202.745 45.891,202.209 45.357,201.136 44.928 C 200.033 44.486,199.504 43.943,199.034 42.769 L 198.406 41.200 192.022 41.200 C 184.742 41.200,183.917 40.975,183.025 38.746 L 182.406 37.200 170.226 37.200 C 158.092 37.200,158.043 37.203,157.423 38.089 M155.354 83.252 C 157.232 84.108,157.220 83.840,157.107 120.686 C 157.006 153.542,156.958 155.613,156.287 156.286 C 155.403 157.171,142.712 157.592,140.800 156.800 C 138.761 155.956,138.800 156.669,138.800 119.812 L 138.800 85.262 140.031 84.031 L 141.262 82.800 147.812 82.800 C 151.828 82.800,154.746 82.975,155.354 83.252 M103.354 91.252 C 105.219 92.101,105.222 92.155,105.108 122.688 C 105.007 149.784,104.956 151.616,104.287 152.286 C 103.403 153.171,90.712 153.592,88.800 152.800 C 86.779 151.963,86.800 152.282,86.800 121.812 L 86.800 93.262 88.031 92.031 L 89.262 90.800 95.812 90.800 C 99.828 90.800,102.746 90.975,103.354 91.252 M195.337 159.244 C 197.064 160.031,197.202 160.998,197.172 172.119 C 197.140 183.838,197.135 183.869,194.962 184.995 L 193.400 185.804 193.200 190.683 C 192.988 195.850,192.914 196.046,190.758 197.122 C 189.440 197.780,189.393 197.886,189.173 200.712 C 188.881 204.469,188.469 204.881,184.714 205.173 C 181.816 205.399,181.800 205.406,180.998 206.956 C 180.555 207.811,179.754 208.673,179.218 208.872 C 177.495 209.509,177.217 209.931,177.669 211.225 C 177.894 211.871,178.228 212.400,178.411 212.400 C 179.736 212.400,180.000 213.671,180.000 220.059 L 180.000 226.461 178.948 227.330 C 175.790 229.943,176.000 229.309,176.000 236.212 L 176.000 242.461 174.948 243.330 C 172.103 245.684,172.000 245.854,172.000 248.212 C 172.000 250.153,171.856 250.580,170.948 251.330 C 169.780 252.297,168.633 253.416,167.343 254.848 C 166.872 255.372,165.927 256.274,165.243 256.854 C 164.121 257.805,164.000 258.130,164.000 260.184 C 164.000 262.155,163.859 262.577,162.948 263.330 C 161.613 264.435,160.435 265.613,159.330 266.948 C 158.580 267.856,158.153 268.000,156.212 268.000 C 153.854 268.000,153.684 268.103,151.330 270.948 L 150.461 272.000 136.059 272.000 C 118.874 272.000,120.400 272.545,120.400 266.411 L 120.400 262.078 119.140 261.639 C 118.447 261.398,116.026 261.200,113.759 261.200 C 108.890 261.200,107.856 260.823,107.025 258.746 L 106.406 257.200 104.022 257.200 C 100.963 257.200,99.732 256.623,99.108 254.896 C 98.747 253.898,98.209 253.357,97.159 252.937 C 95.360 252.217,94.800 251.039,94.800 247.978 L 94.800 245.594 93.212 244.958 C 92.013 244.478,91.499 243.979,91.117 242.920 C 90.747 241.897,90.217 241.360,89.159 240.937 C 87.167 240.140,86.800 239.058,86.800 233.978 L 86.800 229.594 85.231 228.966 C 83.330 228.205,83.115 227.779,82.826 224.200 L 82.600 221.400 79.800 221.174 C 76.248 220.887,75.793 220.665,75.072 218.864 C 74.640 217.783,74.110 217.256,73.080 216.883 C 72.045 216.509,71.521 215.985,71.080 214.883 C 70.643 213.790,70.114 213.257,69.104 212.892 C 67.181 212.197,66.800 211.053,66.800 205.978 L 66.800 201.594 65.254 200.975 C 62.883 200.026,62.800 199.581,62.800 187.812 L 62.800 177.262 64.031 176.031 L 65.262 174.800 71.812 174.800 C 81.075 174.800,81.200 174.896,81.200 182.022 L 81.200 186.406 82.746 187.025 C 84.646 187.785,85.200 188.914,85.200 192.022 L 85.200 194.406 86.769 195.034 C 87.972 195.516,88.484 196.028,88.966 197.231 L 89.594 198.800 93.958 198.800 L 98.322 198.800 99.087 197.326 C 99.531 196.469,100.469 195.531,101.326 195.087 C 102.137 194.666,102.800 194.083,102.800 193.792 C 102.800 192.223,105.198 190.800,107.841 190.800 C 110.234 190.800,110.448 190.727,110.806 189.785 C 111.835 187.079,112.679 186.800,119.840 186.800 C 128.567 186.800,129.200 187.153,129.200 192.022 L 129.200 194.406 130.788 195.042 C 131.987 195.522,132.501 196.021,132.883 197.080 C 133.256 198.110,133.783 198.640,134.864 199.072 C 135.967 199.514,136.496 200.057,136.966 201.231 L 137.594 202.800 140.007 202.800 C 142.222 202.800,142.451 202.717,142.806 201.785 C 143.611 199.668,145.082 198.800,147.868 198.800 C 150.232 198.800,150.448 198.725,150.806 197.785 C 151.606 195.681,153.086 194.800,155.819 194.800 C 158.295 194.800,158.330 194.784,159.081 193.337 C 159.499 192.532,160.431 191.557,161.153 191.169 C 161.875 190.782,162.780 189.880,163.164 189.164 C 163.548 188.448,164.448 187.548,165.164 187.164 C 165.880 186.780,166.782 185.875,167.169 185.153 C 167.557 184.431,168.532 183.499,169.337 183.081 C 170.784 182.330,170.800 182.295,170.800 179.819 C 170.800 177.086,171.681 175.606,173.785 174.806 C 174.790 174.424,174.800 174.375,174.800 169.841 L 174.800 165.262 176.031 164.031 C 176.708 163.354,177.522 162.800,177.841 162.800 C 178.159 162.800,178.594 162.343,178.806 161.785 C 179.835 159.079,180.679 158.800,187.840 158.800 C 191.768 158.800,194.750 158.977,195.337 159.244 M256.122 183.831 C 256.689 184.398,257.208 185.253,257.276 185.731 C 257.353 186.268,257.732 186.647,258.269 186.724 C 260.167 186.994,261.157 188.641,261.283 191.738 C 261.389 194.328,261.482 194.612,262.269 194.724 C 262.747 194.792,263.602 195.311,264.169 195.878 L 265.200 196.909 265.200 209.395 C 265.200 224.568,265.164 224.400,268.411 224.400 C 272.175 224.400,272.000 223.733,272.000 238.059 L 272.000 250.461 270.948 251.330 C 269.780 252.297,268.633 253.416,267.343 254.848 C 266.872 255.372,265.972 256.266,265.343 256.835 C 264.714 257.404,263.809 258.349,263.330 258.935 L 262.461 260.000 240.059 260.000 C 213.359 260.000,216.400 260.945,216.400 252.647 C 216.400 247.369,216.293 246.328,215.600 244.894 C 215.160 243.984,214.800 242.868,214.800 242.416 C 214.800 241.831,214.342 241.410,213.212 240.958 C 212.013 240.478,211.499 239.979,211.117 238.920 C 210.747 237.897,210.217 237.360,209.159 236.937 C 206.857 236.016,206.800 235.649,206.800 221.812 L 206.800 209.262 208.031 208.031 L 209.262 206.800 215.812 206.800 C 225.372 206.800,224.909 206.356,225.195 215.800 L 225.400 222.600 228.200 222.826 C 231.779 223.115,232.205 223.330,232.966 225.231 C 233.745 227.179,234.116 227.195,235.087 225.326 C 235.531 224.469,236.469 223.531,237.326 223.087 C 238.786 222.329,238.800 222.298,238.800 219.819 C 238.800 217.086,239.681 215.606,241.785 214.806 C 242.717 214.451,242.800 214.222,242.800 212.007 L 242.800 209.594 241.231 208.966 C 240.057 208.496,239.514 207.967,239.072 206.864 C 238.640 205.783,238.110 205.256,237.080 204.883 C 236.021 204.501,235.522 203.987,235.042 202.788 L 234.406 201.200 230.022 201.200 C 222.896 201.200,222.800 201.075,222.800 191.812 L 222.800 185.262 224.031 184.031 L 225.262 182.800 240.176 182.800 L 255.091 182.800 256.122 183.831 " stroke="none" fill="#fcfcfc" fill-rule="evenodd"></path><path id="path1" d="M156.086 38.000 L 154.271 40.000 150.086 40.000 L 145.900 40.000 144.086 42.000 L 142.271 44.000 138.133 44.000 L 133.994 44.000 130.077 48.000 L 126.160 52.000 124.077 52.000 L 121.994 52.000 118.077 56.000 L 114.160 60.000 112.113 60.000 L 110.066 60.000 101.033 69.033 L 92.000 78.066 92.000 80.094 L 92.000 82.122 84.000 90.079 L 76.000 98.036 76.000 100.153 C 76.000 102.186,75.920 102.344,74.000 104.086 C 72.065 105.841,72.000 105.971,72.000 108.086 C 72.000 110.200,71.935 110.331,70.000 112.086 C 68.065 113.841,68.000 113.971,68.000 116.086 C 68.000 118.200,67.935 118.331,66.000 120.086 L 64.000 121.900 64.000 126.086 L 64.000 130.271 62.000 132.086 C 60.065 133.841,60.000 133.971,60.000 136.086 C 60.000 138.200,59.935 138.331,58.000 140.086 L 56.000 141.900 56.000 152.086 L 56.000 162.271 54.000 164.086 L 52.000 165.900 52.013 188.050 C 52.022 204.851,52.143 210.345,52.513 210.800 C 52.781 211.130,53.675 211.904,54.500 212.520 L 56.000 213.641 56.013 223.920 C 56.027 235.094,55.929 234.600,58.500 236.520 L 60.000 237.641 60.013 241.920 C 60.027 246.559,60.086 246.718,62.500 248.520 L 64.000 249.641 64.013 253.920 C 64.027 258.559,64.086 258.718,66.500 260.520 C 67.923 261.583,68.001 261.758,68.013 263.920 C 68.026 266.386,68.318 266.950,70.289 268.334 C 70.998 268.831,71.866 269.728,72.220 270.325 C 72.573 270.923,73.463 271.806,74.197 272.288 C 74.932 272.770,75.835 273.667,76.204 274.282 C 76.573 274.897,77.578 275.893,78.438 276.496 C 79.954 277.560,80.000 277.662,80.000 279.954 C 80.000 282.011,80.138 282.438,81.067 283.258 C 81.654 283.776,82.736 284.830,83.472 285.600 C 84.209 286.370,84.944 287.126,85.106 287.280 C 85.267 287.434,86.174 288.334,87.120 289.280 C 88.066 290.226,89.020 291.180,89.240 291.400 C 89.460 291.620,90.360 292.520,91.240 293.400 C 92.120 294.280,92.966 295.133,93.120 295.294 C 93.274 295.456,94.030 296.191,94.800 296.928 C 95.570 297.664,96.624 298.746,97.142 299.333 C 97.993 300.297,98.353 300.400,100.882 300.400 C 103.474 300.400,103.761 300.488,104.800 301.600 C 105.765 302.633,106.208 302.800,107.980 302.800 C 110.612 302.800,112.244 303.652,112.978 305.410 C 113.543 306.762,113.620 306.800,115.799 306.800 C 118.605 306.800,120.230 307.619,120.978 309.410 C 121.543 310.762,121.620 310.800,123.799 310.800 C 126.605 310.800,128.230 311.619,128.978 313.410 L 129.559 314.800 133.799 314.800 C 138.730 314.800,140.095 315.296,140.978 317.410 L 141.559 318.800 147.799 318.800 C 154.891 318.800,156.022 319.122,156.978 321.410 L 157.559 322.800 161.799 322.800 C 166.730 322.800,168.095 323.296,168.978 325.410 C 169.687 327.105,170.192 327.162,170.982 325.635 C 172.533 322.636,171.082 322.800,196.044 322.800 L 218.379 322.800 218.982 321.635 C 220.234 319.213,221.263 318.800,226.044 318.800 L 230.379 318.800 230.982 317.635 C 232.332 315.025,233.051 314.800,240.044 314.800 L 246.379 314.800 246.982 313.635 C 248.010 311.646,249.455 310.800,251.821 310.800 C 254.436 310.800,255.200 310.524,255.200 309.578 C 255.200 308.237,257.634 306.800,259.905 306.800 C 262.437 306.800,263.200 306.517,263.200 305.578 C 263.200 304.200,265.633 302.801,268.038 302.794 C 270.481 302.787,271.044 302.543,271.256 301.400 C 271.338 300.960,272.249 300.060,273.281 299.400 C 274.312 298.740,275.166 297.894,275.178 297.520 C 275.220 296.218,277.683 294.800,279.905 294.800 C 282.437 294.800,283.200 294.517,283.200 293.578 C 283.200 292.200,285.633 290.801,288.038 290.794 C 290.481 290.787,291.044 290.543,291.256 289.400 C 291.338 288.960,292.249 288.060,293.281 287.400 C 294.312 286.740,295.166 285.894,295.178 285.520 C 295.220 284.218,297.683 282.800,299.905 282.800 C 302.427 282.800,303.200 282.517,303.200 281.593 C 303.200 281.196,303.785 280.412,304.500 279.850 C 306.038 278.642,306.432 278.250,307.970 276.400 C 309.047 275.104,309.337 274.985,311.867 274.800 L 314.600 274.600 314.719 272.088 L 314.839 269.575 313.455 268.997 C 312.549 268.619,311.747 267.833,311.135 266.727 C 310.291 265.199,309.972 264.979,307.853 264.463 C 305.812 263.965,305.347 263.664,304.276 262.145 C 303.600 261.185,302.910 260.400,302.744 260.400 C 301.138 260.400,300.400 258.484,300.400 254.313 C 300.400 249.762,300.359 249.666,297.439 247.400 L 296.408 246.600 296.404 238.358 C 296.400 229.217,296.564 229.825,293.439 227.400 C 292.550 226.710,292.408 226.291,292.404 224.358 C 292.400 222.010,292.052 221.428,289.439 219.400 C 288.447 218.630,288.408 218.441,288.404 214.358 C 288.400 209.757,288.362 209.668,285.439 207.400 C 284.447 206.630,284.408 206.441,284.404 202.358 C 284.400 197.757,284.362 197.668,281.439 195.400 L 280.408 194.600 280.404 182.358 L 280.400 170.117 279.435 169.158 C 278.904 168.631,278.006 167.840,277.439 167.400 L 276.408 166.600 276.404 152.358 L 276.400 138.117 275.435 137.158 C 274.904 136.631,274.006 135.840,273.439 135.400 C 272.410 134.601,272.408 134.590,272.404 128.358 C 272.400 121.490,272.492 121.770,269.439 119.400 C 268.447 118.630,268.408 118.441,268.404 114.358 C 268.400 109.757,268.362 109.668,265.439 107.400 C 264.550 106.710,264.408 106.291,264.404 104.358 C 264.400 102.010,264.052 101.428,261.439 99.400 C 260.550 98.710,260.408 98.291,260.404 96.358 C 260.400 94.010,260.052 93.428,257.439 91.400 C 256.557 90.716,256.406 90.282,256.395 88.400 C 256.381 86.044,255.853 85.078,253.928 83.883 C 253.338 83.518,252.560 82.716,252.197 82.103 C 251.835 81.490,250.937 80.594,250.203 80.112 C 249.468 79.630,248.568 78.730,248.203 78.112 C 247.837 77.494,246.937 76.594,246.203 76.112 C 245.468 75.630,244.565 74.733,244.196 74.118 C 243.827 73.503,242.822 72.507,241.962 71.904 C 240.448 70.841,240.400 70.736,240.400 68.458 C 240.400 65.135,239.265 64.000,235.942 64.000 C 233.664 64.000,233.559 63.952,232.496 62.438 C 231.893 61.578,230.897 60.573,230.282 60.204 C 229.667 59.835,228.770 58.932,228.288 58.197 C 227.806 57.463,226.923 56.573,226.325 56.220 C 225.728 55.866,224.831 54.998,224.334 54.289 C 222.950 52.318,222.386 52.026,219.920 52.013 C 217.758 52.001,217.583 51.923,216.520 50.500 C 214.718 48.086,214.559 48.027,209.920 48.013 L 205.641 48.000 204.523 46.500 C 203.908 45.675,203.134 44.832,202.802 44.627 C 202.221 44.266,201.238 43.277,199.258 41.056 L 198.316 40.000 191.978 40.000 L 185.641 40.000 184.520 38.500 C 182.586 35.910,183.263 36.027,170.050 36.013 L 157.900 36.000 156.086 38.000 M183.025 38.746 C 183.917 40.975,184.742 41.200,192.022 41.200 L 198.406 41.200 199.034 42.769 C 199.504 43.943,200.033 44.486,201.136 44.928 C 202.209 45.357,202.745 45.891,203.108 46.896 C 203.803 48.819,204.947 49.200,210.022 49.200 L 214.406 49.200 215.025 50.746 C 215.785 52.646,216.914 53.200,220.022 53.200 L 222.406 53.200 223.042 54.788 C 223.522 55.987,224.021 56.501,225.080 56.883 C 226.110 57.256,226.640 57.783,227.072 58.864 C 227.503 59.940,228.060 60.497,229.136 60.928 C 230.218 61.361,230.744 61.890,231.117 62.920 C 231.739 64.641,232.251 64.887,235.800 65.174 L 238.600 65.400 238.826 68.200 C 239.113 71.752,239.335 72.207,241.136 72.928 C 242.217 73.360,242.744 73.890,243.117 74.920 C 243.491 75.955,244.015 76.479,245.117 76.920 C 246.218 77.361,246.742 77.885,247.117 78.920 C 247.491 79.955,248.015 80.479,249.117 80.920 C 250.208 81.357,250.743 81.887,251.106 82.891 C 251.474 83.908,252.043 84.463,253.301 85.032 L 255.000 85.800 255.200 88.967 C 255.310 90.709,255.580 92.203,255.800 92.288 C 258.883 93.467,258.988 93.612,259.200 96.969 C 259.310 98.710,259.580 100.203,259.800 100.288 C 262.883 101.467,262.988 101.612,263.200 104.969 C 263.310 106.710,263.580 108.203,263.800 108.288 C 264.020 108.372,264.830 108.748,265.600 109.123 L 267.000 109.805 267.200 114.970 C 267.312 117.852,267.577 120.203,267.800 120.288 C 268.020 120.372,268.830 120.748,269.600 121.123 L 271.000 121.806 271.200 128.970 C 271.318 133.188,271.565 136.198,271.800 136.288 C 272.020 136.372,272.830 136.748,273.600 137.124 L 275.000 137.807 275.200 152.970 C 275.326 162.523,275.548 168.191,275.800 168.287 C 276.020 168.372,276.830 168.748,277.600 169.124 L 279.000 169.807 279.200 182.970 C 279.325 191.189,279.550 196.192,279.800 196.287 C 280.020 196.372,280.830 196.748,281.600 197.123 L 283.000 197.805 283.200 202.970 C 283.312 205.852,283.577 208.203,283.800 208.288 C 284.020 208.372,284.830 208.748,285.600 209.123 L 287.000 209.805 287.200 214.970 C 287.312 217.852,287.577 220.203,287.800 220.288 C 290.880 221.464,290.988 221.613,291.200 224.969 C 291.310 226.710,291.580 228.203,291.800 228.288 C 292.020 228.372,292.830 228.748,293.600 229.123 L 295.000 229.806 295.200 238.970 C 295.321 244.522,295.558 248.195,295.800 248.288 C 296.020 248.372,296.830 248.748,297.600 249.123 L 299.000 249.805 299.200 254.970 C 299.312 257.852,299.577 260.203,299.800 260.288 C 301.997 261.127,302.986 261.919,303.284 263.081 C 303.569 264.191,303.935 264.479,306.024 265.241 L 308.435 266.120 307.343 267.260 C 306.389 268.256,305.958 268.400,303.941 268.400 C 302.574 268.400,301.467 268.604,301.230 268.900 C 298.373 272.454,298.454 272.400,295.974 272.400 C 294.581 272.400,293.469 272.603,293.230 272.900 C 290.373 276.454,290.454 276.400,287.974 276.400 C 286.581 276.400,285.469 276.603,285.230 276.900 C 282.373 280.454,282.454 280.400,279.974 280.400 C 278.581 280.400,277.469 280.603,277.230 280.900 C 277.009 281.175,276.263 282.075,275.572 282.900 L 274.317 284.400 269.974 284.400 C 266.981 284.400,265.507 284.555,265.230 284.900 C 262.373 288.454,262.454 288.400,259.974 288.400 C 258.581 288.400,257.469 288.603,257.230 288.900 C 257.009 289.175,256.263 290.075,255.572 290.900 L 254.317 292.400 247.974 292.400 C 243.381 292.400,241.521 292.538,241.230 292.900 C 241.009 293.175,240.263 294.075,239.572 294.900 L 238.317 296.400 225.974 296.400 C 216.581 296.400,213.536 296.519,213.230 296.900 C 213.009 297.175,212.263 298.075,211.572 298.900 L 210.317 300.400 201.974 300.400 C 195.781 300.400,193.528 300.529,193.230 300.900 C 193.009 301.175,192.263 302.075,191.572 302.900 L 190.317 304.400 185.974 304.400 C 182.981 304.400,181.507 304.555,181.230 304.900 C 181.009 305.175,180.263 306.075,179.572 306.900 L 178.317 308.400 168.213 308.400 L 158.109 308.400 157.055 307.345 C 156.475 306.765,156.000 306.148,156.000 305.974 C 156.000 304.785,154.635 304.400,150.426 304.400 C 146.127 304.400,144.000 303.597,144.000 301.974 C 144.000 300.785,142.635 300.400,138.426 300.400 C 133.876 300.400,132.508 299.831,131.816 297.652 C 131.700 297.285,131.006 296.662,130.274 296.268 C 129.543 295.874,128.610 294.977,128.202 294.276 C 127.193 292.540,126.932 292.413,124.355 292.406 C 122.202 292.400,120.000 291.170,120.000 289.974 C 120.000 288.659,118.717 288.400,112.200 288.400 C 104.020 288.400,104.400 288.128,104.400 293.982 C 104.400 298.967,104.563 298.785,100.097 298.795 L 97.594 298.800 96.966 297.231 C 96.496 296.057,95.967 295.514,94.864 295.072 C 93.783 294.640,93.256 294.110,92.883 293.080 C 92.509 292.045,91.985 291.521,90.883 291.080 C 89.782 290.639,89.258 290.115,88.883 289.080 C 88.509 288.045,87.985 287.521,86.883 287.080 C 85.782 286.639,85.258 286.115,84.883 285.080 C 84.501 284.021,83.987 283.522,82.788 283.042 L 81.200 282.406 81.200 280.022 C 81.200 276.961,80.640 275.783,78.841 275.063 C 77.783 274.640,77.253 274.103,76.883 273.080 C 76.509 272.045,75.985 271.521,74.883 271.080 C 73.782 270.639,73.258 270.115,72.883 269.080 C 72.501 268.021,71.987 267.522,70.788 267.042 L 69.200 266.406 69.200 264.022 C 69.200 260.914,68.646 259.785,66.746 259.025 L 65.200 258.406 65.200 254.022 C 65.200 248.882,64.843 247.864,62.746 247.025 L 61.200 246.406 61.200 242.022 C 61.200 236.882,60.843 235.864,58.746 235.025 L 57.200 234.406 57.200 224.022 C 57.200 212.429,57.114 211.972,54.742 211.024 L 53.193 210.404 53.297 188.102 L 53.400 165.800 54.758 165.122 C 57.049 163.978,56.986 164.299,57.200 152.681 L 57.400 141.800 58.758 141.122 C 60.792 140.107,60.929 139.856,61.174 136.706 C 61.393 133.887,61.441 133.780,62.758 133.122 C 64.914 132.046,64.988 131.850,65.200 126.681 L 65.400 121.800 66.758 121.122 C 68.792 120.107,68.929 119.856,69.174 116.706 C 69.393 113.887,69.441 113.780,70.758 113.122 C 72.792 112.107,72.929 111.856,73.174 108.706 C 73.393 105.887,73.441 105.780,74.758 105.122 C 76.791 104.107,76.929 103.856,77.174 100.708 C 77.398 97.825,77.411 97.798,78.937 97.002 C 79.896 96.502,80.681 95.705,81.024 94.885 C 81.387 94.018,82.054 93.370,82.983 92.981 C 83.947 92.579,84.579 91.946,84.982 90.982 C 85.385 90.017,86.017 89.385,86.982 88.982 C 87.947 88.579,88.579 87.947,88.982 86.982 C 89.382 86.025,90.017 85.385,90.958 84.992 C 92.768 84.235,92.922 83.933,93.181 80.609 C 93.397 77.839,93.419 77.794,94.937 77.002 C 95.896 76.502,96.681 75.705,97.024 74.885 C 97.387 74.018,98.054 73.370,98.983 72.981 C 99.947 72.579,100.579 71.946,100.982 70.982 C 101.385 70.017,102.017 69.385,102.982 68.982 C 103.946 68.579,104.579 67.947,104.981 66.983 C 105.370 66.054,106.018 65.387,106.885 65.024 C 107.705 64.681,108.502 63.896,109.002 62.937 C 109.794 61.419,109.839 61.397,112.609 61.181 C 115.933 60.922,116.235 60.768,116.991 58.960 C 117.370 58.053,118.025 57.384,118.885 57.024 C 119.705 56.681,120.502 55.896,121.002 54.937 C 121.794 53.419,121.839 53.397,124.609 53.181 C 127.933 52.922,128.235 52.768,128.991 50.960 C 129.370 50.053,130.025 49.384,130.885 49.024 C 131.705 48.681,132.502 47.896,133.002 46.937 L 133.804 45.400 138.683 45.200 C 143.850 44.988,144.046 44.914,145.122 42.758 L 145.800 41.400 150.640 41.200 C 155.398 41.003,156.800 40.603,156.800 39.440 C 156.800 37.254,157.123 37.200,170.226 37.200 L 182.406 37.200 183.025 38.746 M140.031 84.031 L 138.800 85.262 138.800 119.812 C 138.800 156.669,138.761 155.956,140.800 156.800 C 142.712 157.592,155.403 157.171,156.287 156.286 C 157.153 155.418,157.626 86.796,156.780 84.752 C 156.078 83.057,154.897 82.800,147.812 82.800 L 141.262 82.800 140.031 84.031 M155.269 85.062 C 155.966 85.693,156.000 87.300,156.000 119.936 L 156.000 154.148 155.130 155.074 C 153.975 156.304,142.439 156.521,141.131 155.338 C 140.081 154.387,139.981 86.076,141.029 85.029 C 141.983 84.074,154.208 84.102,155.269 85.062 M88.031 92.031 L 86.800 93.262 86.800 121.812 C 86.800 152.282,86.779 151.963,88.800 152.800 C 90.712 153.592,103.403 153.171,104.287 152.286 C 105.154 151.417,105.624 94.789,104.781 92.754 C 104.078 91.057,102.899 90.800,95.812 90.800 L 89.262 90.800 88.031 92.031 M103.269 93.062 C 103.964 93.691,104.000 95.113,104.000 121.936 L 104.000 150.148 103.130 151.074 C 101.975 152.304,90.439 152.521,89.131 151.338 C 88.082 150.388,87.983 94.074,89.029 93.029 C 89.983 92.074,102.208 92.102,103.269 93.062 M180.254 159.785 C 179.670 160.326,179.018 161.226,178.806 161.785 C 178.594 162.343,178.159 162.800,177.841 162.800 C 177.522 162.800,176.708 163.354,176.031 164.031 L 174.800 165.262 174.800 169.841 C 174.800 174.375,174.790 174.424,173.785 174.806 C 171.681 175.606,170.800 177.086,170.800 179.819 C 170.800 182.295,170.784 182.330,169.337 183.081 C 168.532 183.499,167.557 184.431,167.169 185.153 C 166.782 185.875,165.880 186.780,165.164 187.164 C 164.448 187.548,163.548 188.448,163.164 189.164 C 162.780 189.880,161.875 190.782,161.153 191.169 C 160.431 191.557,159.499 192.532,159.081 193.337 C 158.330 194.784,158.295 194.800,155.819 194.800 C 153.086 194.800,151.606 195.681,150.806 197.785 C 150.448 198.725,150.232 198.800,147.868 198.800 C 145.082 198.800,143.611 199.668,142.806 201.785 C 142.451 202.717,142.222 202.800,140.007 202.800 L 137.594 202.800 136.966 201.231 C 136.496 200.057,135.967 199.514,134.864 199.072 C 133.783 198.640,133.256 198.110,132.883 197.080 C 132.501 196.021,131.987 195.522,130.788 195.042 L 129.200 194.406 129.200 192.022 C 129.200 187.153,128.567 186.800,119.840 186.800 C 112.679 186.800,111.835 187.079,110.806 189.785 C 110.448 190.727,110.234 190.800,107.841 190.800 C 105.198 190.800,102.800 192.223,102.800 193.792 C 102.800 194.083,102.137 194.666,101.326 195.087 C 100.469 195.531,99.531 196.469,99.087 197.326 L 98.322 198.800 93.958 198.800 L 89.594 198.800 88.966 197.231 C 88.484 196.028,87.972 195.516,86.769 195.034 L 85.200 194.406 85.200 192.022 C 85.200 188.914,84.646 187.785,82.746 187.025 L 81.200 186.406 81.200 182.022 C 81.200 174.896,81.075 174.800,71.812 174.800 L 65.262 174.800 64.031 176.031 L 62.800 177.262 62.800 187.812 C 62.800 199.581,62.883 200.026,65.254 200.975 L 66.800 201.594 66.800 205.978 C 66.800 211.053,67.181 212.197,69.104 212.892 C 70.114 213.257,70.643 213.790,71.080 214.883 C 71.521 215.985,72.045 216.509,73.080 216.883 C 74.110 217.256,74.640 217.783,75.072 218.864 C 75.793 220.665,76.248 220.887,79.800 221.174 L 82.600 221.400 82.826 224.200 C 83.115 227.779,83.330 228.205,85.231 228.966 L 86.800 229.594 86.800 233.978 C 86.800 239.058,87.167 240.140,89.159 240.937 C 90.217 241.360,90.747 241.897,91.117 242.920 C 91.499 243.979,92.013 244.478,93.212 244.958 L 94.800 245.594 94.800 247.978 C 94.800 251.039,95.360 252.217,97.159 252.937 C 98.209 253.357,98.747 253.898,99.108 254.896 C 99.732 256.623,100.963 257.200,104.022 257.200 L 106.406 257.200 107.025 258.746 C 107.856 260.823,108.890 261.200,113.759 261.200 C 116.026 261.200,118.447 261.398,119.140 261.639 L 120.400 262.078 120.400 266.411 C 120.400 272.545,118.874 272.000,136.059 272.000 L 150.461 272.000 151.330 270.948 C 153.684 268.103,153.854 268.000,156.212 268.000 C 158.153 268.000,158.580 267.856,159.330 266.948 C 160.435 265.613,161.613 264.435,162.948 263.330 C 163.859 262.577,164.000 262.155,164.000 260.184 C 164.000 258.130,164.121 257.805,165.243 256.854 C 165.927 256.274,166.872 255.372,167.343 254.848 C 168.633 253.416,169.780 252.297,170.948 251.330 C 171.856 250.580,172.000 250.153,172.000 248.212 C 172.000 245.854,172.103 245.684,174.948 243.330 L 176.000 242.461 176.000 236.212 C 176.000 229.309,175.790 229.943,178.948 227.330 L 180.000 226.461 180.000 220.059 C 180.000 213.671,179.736 212.400,178.411 212.400 C 178.228 212.400,177.894 211.871,177.669 211.225 C 177.217 209.931,177.495 209.509,179.218 208.872 C 179.754 208.673,180.555 207.811,180.998 206.956 C 181.800 205.406,181.816 205.399,184.714 205.173 C 188.469 204.881,188.881 204.469,189.173 200.712 C 189.393 197.886,189.440 197.780,190.758 197.122 C 192.914 196.046,192.988 195.850,193.200 190.683 L 193.400 185.804 194.962 184.995 C 197.135 183.869,197.140 183.838,197.172 172.119 C 197.210 157.997,197.772 158.800,187.840 158.800 C 181.463 158.800,181.293 158.822,180.254 159.785 M195.269 161.062 C 195.941 161.671,196.000 162.553,196.000 171.998 L 196.000 182.271 194.000 184.086 L 192.000 185.900 192.000 190.086 L 192.000 194.271 190.000 196.086 C 188.079 197.828,188.000 197.984,188.000 200.024 C 188.000 202.995,187.027 204.000,184.150 204.000 C 181.811 204.000,176.361 208.610,175.737 211.116 C 175.351 212.666,174.482 213.173,172.180 213.187 C 169.168 213.206,169.200 213.112,169.200 222.020 C 169.200 230.378,168.903 232.194,167.467 232.631 C 165.796 233.139,165.200 234.026,165.200 236.002 C 165.200 238.607,164.520 240.355,163.398 240.636 C 162.298 240.912,160.997 242.252,160.619 243.499 C 160.469 243.994,159.926 244.504,159.411 244.633 C 158.299 244.912,156.999 246.247,156.619 247.499 C 156.469 247.994,155.926 248.504,155.411 248.633 C 154.310 248.909,153.000 250.244,152.630 251.467 C 152.250 252.719,150.413 253.200,146.002 253.200 C 141.875 253.200,141.239 253.468,140.631 255.467 C 140.193 256.905,138.379 257.200,129.976 257.200 L 122.071 257.200 120.978 258.500 L 119.884 259.800 114.792 259.939 L 109.700 260.078 108.550 258.539 C 106.846 256.259,106.418 256.027,103.896 256.013 C 101.692 256.001,101.546 255.935,100.513 254.483 C 99.919 253.649,98.751 252.481,97.917 251.887 C 96.454 250.846,96.400 250.723,96.400 248.446 C 96.400 246.397,96.260 245.959,95.344 245.142 C 93.123 243.162,92.134 242.179,91.773 241.598 C 91.568 241.266,90.725 240.492,89.900 239.877 L 88.400 238.759 88.387 234.480 C 88.373 229.841,88.314 229.682,85.900 227.880 C 84.467 226.809,84.400 226.655,84.400 224.434 C 84.400 221.138,83.256 220.000,79.942 220.000 C 77.664 220.000,77.559 219.952,76.496 218.438 C 75.893 217.578,74.897 216.573,74.282 216.204 C 73.667 215.835,72.788 214.963,72.329 214.267 C 71.871 213.570,70.799 212.507,69.948 211.904 L 68.400 210.808 68.387 206.504 C 68.373 201.839,68.315 201.683,65.900 199.880 L 64.400 198.759 64.400 188.208 C 64.400 175.171,63.599 176.400,72.097 176.400 C 80.298 176.400,79.995 176.188,80.013 181.962 C 80.027 186.555,80.089 186.719,82.500 188.520 C 83.934 189.592,84.000 189.743,84.000 191.978 C 84.000 194.001,84.143 194.443,85.056 195.258 C 86.402 196.458,87.942 197.998,89.142 199.344 C 90.045 200.356,90.256 200.400,94.201 200.400 L 98.317 200.400 99.570 198.900 C 100.260 198.075,100.953 197.285,101.112 197.144 C 101.944 196.403,104.669 193.619,105.116 193.053 C 105.488 192.582,106.285 192.400,107.974 192.400 C 110.454 192.400,110.373 192.454,113.230 188.900 C 113.521 188.537,115.403 188.400,120.084 188.400 C 127.824 188.400,128.000 188.480,128.000 192.020 C 128.000 194.005,128.144 194.443,129.067 195.258 C 129.654 195.776,130.736 196.830,131.472 197.600 C 133.115 199.318,133.082 199.285,134.800 200.928 C 135.570 201.664,136.624 202.746,137.142 203.333 C 137.939 204.236,138.410 204.400,140.201 204.400 C 142.416 204.400,142.417 204.399,145.230 200.900 C 145.469 200.603,146.581 200.400,147.974 200.400 C 150.454 200.400,150.373 200.454,153.230 196.900 C 153.469 196.603,154.581 196.400,155.974 196.400 C 158.192 196.400,158.384 196.320,159.570 194.900 C 160.260 194.075,160.986 193.252,161.184 193.072 C 161.382 192.891,162.231 192.056,163.072 191.215 C 164.837 189.450,165.474 188.813,167.144 187.144 C 168.024 186.264,168.891 185.382,169.072 185.184 C 169.252 184.986,170.075 184.260,170.900 183.570 C 172.320 182.384,172.400 182.192,172.400 179.974 C 172.400 178.581,172.603 177.469,172.900 177.230 C 173.175 177.009,174.075 176.263,174.900 175.572 L 176.400 174.317 176.400 169.974 C 176.400 166.435,176.521 165.536,177.053 165.116 C 177.896 164.450,180.450 161.896,181.116 161.053 C 181.890 160.073,194.184 160.081,195.269 161.062 M224.031 184.031 L 222.800 185.262 222.800 191.812 C 222.800 201.075,222.896 201.200,230.022 201.200 L 234.406 201.200 235.042 202.788 C 235.522 203.987,236.021 204.501,237.080 204.883 C 238.110 205.256,238.640 205.783,239.072 206.864 C 239.514 207.967,240.057 208.496,241.231 208.966 L 242.800 209.594 242.800 212.007 C 242.800 214.222,242.717 214.451,241.785 214.806 C 239.681 215.606,238.800 217.086,238.800 219.819 C 238.800 222.298,238.786 222.329,237.326 223.087 C 236.469 223.531,235.531 224.469,235.087 225.326 C 234.116 227.195,233.745 227.179,232.966 225.231 C 232.205 223.330,231.779 223.115,228.200 222.826 L 225.400 222.600 225.195 215.800 C 224.909 206.356,225.372 206.800,215.812 206.800 L 209.262 206.800 208.031 208.031 L 206.800 209.262 206.800 221.812 C 206.800 235.649,206.857 236.016,209.159 236.937 C 210.217 237.360,210.747 237.897,211.117 238.920 C 211.499 239.979,212.013 240.478,213.212 240.958 C 214.342 241.410,214.800 241.831,214.800 242.416 C 214.800 242.868,215.160 243.984,215.600 244.894 C 216.293 246.328,216.400 247.369,216.400 252.647 C 216.400 260.945,213.359 260.000,240.059 260.000 L 262.461 260.000 263.330 258.935 C 263.809 258.349,264.714 257.404,265.343 256.835 C 265.972 256.266,266.872 255.372,267.343 254.848 C 268.633 253.416,269.780 252.297,270.948 251.330 L 272.000 250.461 272.000 238.059 C 272.000 223.733,272.175 224.400,268.411 224.400 C 265.164 224.400,265.200 224.568,265.200 209.395 L 265.200 196.909 264.169 195.878 C 263.602 195.311,262.747 194.792,262.269 194.724 C 261.482 194.612,261.389 194.328,261.283 191.738 C 261.157 188.641,260.167 186.994,258.269 186.724 C 257.732 186.647,257.353 186.268,257.276 185.731 C 257.208 185.253,256.689 184.398,256.122 183.831 L 255.091 182.800 240.176 182.800 L 225.262 182.800 224.031 184.031 M257.214 187.186 C 259.984 189.956,260.000 189.985,260.000 192.162 C 260.000 194.302,260.047 194.392,262.020 196.056 L 264.040 197.759 263.920 210.891 L 263.800 224.024 262.500 225.041 L 261.200 226.058 261.187 230.529 C 261.171 236.330,260.499 237.200,256.036 237.200 C 254.020 237.200,253.142 237.787,252.627 239.480 C 252.480 239.963,251.963 240.479,251.480 240.626 C 250.251 240.998,248.911 242.304,248.636 243.398 C 248.224 245.041,246.757 245.200,232.002 245.200 C 216.571 245.200,217.647 245.391,216.247 242.400 C 215.886 241.630,214.978 240.603,214.229 240.118 C 213.480 239.633,212.565 238.733,212.196 238.118 C 211.827 237.503,210.822 236.507,209.962 235.904 L 208.400 234.808 208.400 222.232 C 208.400 206.855,207.540 208.400,216.097 208.400 C 224.552 208.400,224.000 207.869,224.000 216.007 C 224.000 223.718,224.360 224.400,228.434 224.400 C 230.655 224.400,230.809 224.467,231.880 225.900 C 233.836 228.519,234.031 228.572,235.522 226.891 C 237.270 224.919,237.179 225.009,238.900 223.570 C 240.320 222.384,240.400 222.192,240.400 219.974 C 240.400 218.581,240.603 217.469,240.900 217.230 C 244.399 214.417,244.400 214.416,244.400 212.201 C 244.400 210.410,244.236 209.939,243.333 209.142 C 242.746 208.624,241.664 207.570,240.928 206.800 C 239.285 205.082,239.318 205.115,237.600 203.472 C 236.830 202.736,235.776 201.654,235.258 201.067 C 234.349 200.038,234.166 200.000,230.090 200.000 C 224.170 200.000,224.400 200.317,224.400 192.167 C 224.400 183.488,222.564 184.400,240.042 184.400 L 254.428 184.400 257.214 187.186 " stroke="none" fill="#9c9c9c" fill-rule="evenodd"></path><path id="path2" d="M138.000 20.000 L 138.000 22.000 132.000 22.000 L 126.000 22.000 126.000 24.000 L 126.000 26.000 122.000 26.000 L 118.000 26.000 118.000 28.000 L 118.000 30.000 114.000 30.000 L 110.000 30.000 110.000 32.000 L 110.000 34.000 108.000 34.000 L 106.000 34.000 106.000 36.000 L 106.000 38.000 104.000 38.000 L 102.000 38.000 102.000 40.000 L 102.000 42.000 98.000 42.000 L 94.000 42.000 94.000 44.000 L 94.000 46.000 92.000 46.000 L 90.000 46.000 90.000 48.000 L 90.000 50.000 88.000 50.000 L 86.000 50.000 86.000 52.000 L 86.000 54.000 84.000 54.000 L 82.000 54.000 82.000 56.000 L 82.000 58.000 80.000 58.000 L 78.000 58.000 78.000 60.000 L 78.000 62.000 76.000 62.000 L 74.000 62.000 74.000 64.000 L 74.000 66.000 72.000 66.000 L 70.000 66.000 70.000 68.000 L 70.000 70.000 68.000 70.000 L 66.000 70.000 66.000 72.000 L 66.000 74.000 64.000 74.000 L 62.000 74.000 62.000 78.000 L 62.000 82.000 60.000 82.000 L 58.000 82.000 58.000 84.000 L 58.000 86.000 56.000 86.000 L 54.000 86.000 54.000 90.000 L 54.000 94.000 52.000 94.000 L 50.000 94.000 50.000 98.000 L 50.000 102.000 48.000 102.000 L 46.000 102.000 46.000 108.000 L 46.000 114.000 44.000 114.000 L 42.000 114.000 42.000 120.000 L 42.000 126.000 40.000 126.000 L 38.000 126.000 38.000 136.000 L 38.000 146.000 36.000 146.000 L 34.000 146.000 34.000 188.000 L 34.000 230.000 36.000 230.000 L 38.000 230.000 38.000 240.000 L 38.000 250.000 40.000 250.000 L 42.000 250.000 42.000 256.000 L 42.000 262.000 44.000 262.000 L 46.000 262.000 46.000 268.000 L 46.000 274.000 48.000 274.000 L 50.000 274.000 50.000 278.000 L 50.000 282.000 52.000 282.000 L 54.000 282.000 54.000 286.000 L 54.000 290.000 56.000 290.000 L 58.000 290.000 58.000 292.000 L 58.000 294.000 60.000 294.000 L 62.000 294.000 62.000 296.000 L 62.000 298.000 64.000 298.000 L 66.000 298.000 66.000 300.000 L 66.000 302.000 68.000 302.000 L 70.000 302.000 70.000 306.000 L 70.000 310.000 74.000 310.000 L 78.000 310.000 78.000 312.000 L 78.000 314.000 80.000 314.000 L 82.000 314.000 82.000 316.000 L 82.000 318.000 86.000 318.000 L 90.000 318.000 90.000 320.000 L 90.000 322.000 92.000 322.000 L 94.000 322.000 94.000 324.000 L 94.000 326.000 98.000 326.000 L 102.000 326.000 102.000 328.000 L 102.000 330.000 104.000 330.000 L 106.000 330.000 106.000 332.000 L 106.000 334.000 112.000 334.000 L 118.000 334.000 118.000 336.000 L 118.000 338.000 124.000 338.000 L 130.000 338.000 130.000 340.000 L 130.000 342.000 142.000 342.000 L 154.000 342.000 154.000 344.000 L 154.000 346.000 194.000 346.000 L 234.000 346.000 234.000 344.000 L 234.000 342.000 238.000 342.000 L 242.000 342.000 242.000 340.000 L 242.000 338.000 246.000 338.000 L 250.000 338.000 250.000 336.000 L 250.000 334.000 256.000 334.000 L 262.000 334.000 262.000 332.000 L 262.000 330.000 268.000 330.000 L 274.000 330.000 274.000 328.000 L 274.000 326.000 278.000 326.000 L 282.000 326.000 282.000 324.000 L 282.000 322.000 284.000 322.000 L 286.000 322.000 286.000 320.000 L 286.000 318.000 290.000 318.000 L 294.000 318.000 294.000 316.000 L 294.000 314.000 300.000 314.000 L 306.000 314.000 306.000 312.000 L 306.000 310.000 310.000 310.000 L 314.000 310.000 314.000 308.000 L 314.000 306.000 318.000 306.000 L 322.000 306.000 322.000 304.000 L 322.000 302.000 330.000 302.000 L 338.000 302.000 338.000 300.000 L 338.000 298.000 344.000 298.000 L 350.000 298.000 350.000 296.000 L 350.000 294.000 358.000 294.000 L 366.000 294.000 366.000 292.000 L 366.000 290.000 372.000 290.000 L 378.000 290.000 378.000 278.000 L 378.000 266.000 362.000 266.000 L 346.000 266.000 346.000 264.000 L 346.000 262.000 342.000 262.000 L 338.000 262.000 338.000 260.000 L 338.000 258.000 336.000 258.000 L 334.000 258.000 334.000 254.000 L 334.000 250.000 332.000 250.000 L 330.000 250.000 330.000 248.000 L 330.000 246.000 328.000 246.000 L 326.000 246.000 326.000 244.000 L 326.000 242.000 324.000 242.000 L 322.000 242.000 322.000 240.000 L 322.000 238.000 320.000 238.000 L 318.000 238.000 318.000 236.000 L 318.000 234.000 316.000 234.000 L 314.000 234.000 314.000 224.000 L 314.000 214.000 312.000 214.000 L 310.000 214.000 310.000 210.000 L 310.000 206.000 308.000 206.000 L 306.000 206.000 306.000 200.000 L 306.000 194.000 304.000 194.000 L 302.000 194.000 302.000 188.000 L 302.000 182.000 300.000 182.000 L 298.000 182.000 298.000 168.000 L 298.000 154.000 296.000 154.000 L 294.000 154.000 294.000 138.000 L 294.000 122.000 292.000 122.000 L 290.000 122.000 290.000 114.000 L 290.000 106.000 288.000 106.000 L 286.000 106.000 286.000 100.000 L 286.000 94.000 284.000 94.000 L 282.000 94.000 282.000 90.000 L 282.000 86.000 280.000 86.000 L 278.000 86.000 278.000 82.000 L 278.000 78.000 276.000 78.000 L 274.000 78.000 274.000 74.000 L 274.000 70.000 272.000 70.000 L 270.000 70.000 270.000 68.000 L 270.000 66.000 268.000 66.000 L 266.000 66.000 266.000 64.000 L 266.000 62.000 264.000 62.000 L 262.000 62.000 262.000 58.000 L 262.000 54.000 260.000 54.000 L 258.000 54.000 258.000 52.000 L 258.000 50.000 256.000 50.000 L 254.000 50.000 254.000 48.000 L 254.000 46.000 252.000 46.000 L 250.000 46.000 250.000 44.000 L 250.000 42.000 248.000 42.000 L 246.000 42.000 246.000 40.000 L 246.000 38.000 242.000 38.000 L 238.000 38.000 238.000 36.000 L 238.000 34.000 234.000 34.000 L 230.000 34.000 230.000 32.000 L 230.000 30.000 226.000 30.000 L 222.000 30.000 222.000 28.000 L 222.000 26.000 218.000 26.000 L 214.000 26.000 214.000 24.000 L 214.000 22.000 208.000 22.000 L 202.000 22.000 202.000 20.000 L 202.000 18.000 170.000 18.000 L 138.000 18.000 138.000 20.000 M183.037 35.386 C 183.658 35.708,184.445 36.563,184.786 37.286 L 185.407 38.600 191.677 38.710 C 198.659 38.833,199.764 39.140,200.783 41.246 C 201.122 41.947,202.025 42.852,202.789 43.257 C 203.552 43.663,204.454 44.581,204.792 45.297 L 205.406 46.600 209.683 46.713 C 214.551 46.842,215.858 47.315,216.785 49.286 C 217.366 50.520,217.544 50.607,219.694 50.720 C 222.525 50.868,223.982 51.591,224.783 53.246 C 225.122 53.947,226.025 54.852,226.789 55.257 C 227.552 55.663,228.452 56.563,228.789 57.257 C 229.125 57.952,230.025 58.852,230.789 59.257 C 231.552 59.663,232.453 60.581,232.790 61.297 C 233.360 62.508,233.558 62.608,235.602 62.714 C 239.854 62.935,240.748 63.779,241.153 67.954 C 241.386 70.361,241.480 70.552,242.789 71.252 C 243.552 71.660,244.452 72.563,244.789 73.257 C 245.125 73.952,246.025 74.852,246.789 75.257 C 247.552 75.663,248.452 76.566,248.789 77.264 C 249.126 77.965,250.057 78.872,250.869 79.290 C 251.761 79.749,252.495 80.498,252.739 81.197 C 252.973 81.869,253.695 82.627,254.470 83.018 C 256.631 84.104,257.181 85.090,257.191 87.890 C 257.200 90.294,257.244 90.402,258.500 91.033 C 260.630 92.103,261.181 93.099,261.191 95.890 C 261.200 98.294,261.244 98.402,262.500 99.033 C 264.630 100.103,265.181 101.099,265.191 103.890 C 265.200 106.294,265.244 106.402,266.500 107.033 C 268.918 108.249,269.181 108.918,269.191 113.890 L 269.200 118.379 270.500 119.033 C 273.062 120.321,273.181 120.714,273.191 127.890 L 273.200 134.379 274.500 135.033 C 277.277 136.429,277.181 135.829,277.191 151.890 L 277.200 166.379 278.500 167.033 C 281.246 168.413,281.181 168.055,281.191 181.890 L 281.200 194.379 282.500 195.033 C 284.918 196.249,285.181 196.918,285.191 201.890 L 285.200 206.379 286.500 207.033 C 288.918 208.249,289.181 208.918,289.191 213.890 L 289.200 218.379 290.500 219.033 C 292.630 220.103,293.181 221.099,293.191 223.890 C 293.200 226.294,293.244 226.402,294.500 227.033 C 297.148 228.364,297.181 228.500,297.191 237.890 L 297.200 246.379 298.500 247.033 C 300.919 248.249,301.181 248.918,301.191 253.892 L 301.200 258.384 302.756 259.177 C 303.749 259.684,304.461 260.399,304.724 261.155 C 305.209 262.546,305.954 263.001,308.400 263.402 C 310.397 263.730,312.400 264.944,312.400 265.828 C 312.400 266.143,313.300 267.048,314.400 267.838 L 316.400 269.275 316.400 271.912 C 316.400 275.493,315.593 276.400,312.407 276.400 C 310.008 276.400,309.358 276.733,308.243 278.531 C 307.857 279.153,306.969 280.008,306.271 280.430 C 305.572 280.853,304.559 281.919,304.020 282.799 C 303.045 284.391,303.024 284.400,300.548 284.400 C 297.881 284.400,297.629 284.539,296.006 286.909 C 295.459 287.707,294.649 288.458,294.206 288.576 C 293.763 288.695,292.860 289.604,292.200 290.595 L 291.000 292.398 288.529 292.399 C 285.878 292.400,285.623 292.542,284.000 294.926 C 283.030 296.350,282.926 296.395,280.529 296.397 C 277.883 296.400,277.627 296.543,276.006 298.909 C 275.459 299.707,274.649 300.458,274.206 300.576 C 273.763 300.695,272.860 301.604,272.200 302.595 L 271.000 304.398 268.529 304.399 C 265.878 304.400,265.623 304.542,264.000 306.926 C 263.030 308.350,262.926 308.395,260.529 308.397 C 257.879 308.400,257.623 308.543,256.000 310.926 C 255.028 312.353,254.930 312.395,252.500 312.397 C 249.856 312.400,249.882 312.385,247.750 315.100 L 246.729 316.400 240.364 316.400 C 233.402 316.400,234.023 316.205,231.750 319.100 L 230.729 320.400 226.364 320.400 C 221.637 320.400,221.980 320.260,219.750 323.100 L 218.729 324.400 196.364 324.400 C 171.519 324.400,174.092 324.118,171.750 327.100 C 170.342 328.892,169.524 328.746,167.838 326.400 L 166.401 324.400 161.838 324.400 L 157.275 324.400 155.838 322.400 L 154.401 320.400 147.838 320.400 L 141.275 320.400 139.838 318.400 L 138.401 316.400 133.838 316.400 L 129.275 316.400 127.838 314.400 L 126.401 312.400 123.838 312.400 L 121.275 312.400 119.838 310.400 L 118.401 308.400 115.838 308.400 L 113.275 308.400 111.838 306.400 L 110.401 304.400 107.804 304.400 C 105.285 304.400,105.180 304.359,104.304 303.021 C 103.306 301.497,102.659 301.222,100.000 301.187 C 97.527 301.155,96.130 300.452,95.259 298.800 C 94.852 298.030,93.952 297.125,93.257 296.789 C 92.563 296.452,91.663 295.552,91.257 294.789 C 90.852 294.025,89.952 293.125,89.257 292.789 C 88.563 292.452,87.663 291.552,87.257 290.789 C 86.852 290.025,85.952 289.125,85.257 288.789 C 84.563 288.452,83.663 287.552,83.257 286.789 C 82.852 286.025,81.947 285.122,81.246 284.783 C 79.591 283.982,78.868 282.525,78.720 279.694 C 78.608 277.548,78.518 277.365,77.297 276.791 C 76.581 276.453,75.663 275.552,75.257 274.789 C 74.852 274.025,73.952 273.125,73.257 272.789 C 72.563 272.452,71.663 271.552,71.257 270.789 C 70.852 270.025,69.947 269.122,69.246 268.783 C 67.591 267.982,66.868 266.525,66.720 263.694 C 66.607 261.544,66.520 261.366,65.286 260.785 C 63.315 259.858,62.842 258.551,62.713 253.683 L 62.600 249.406 61.286 248.786 C 59.315 247.857,58.842 246.551,58.713 241.683 L 58.600 237.406 57.286 236.786 C 54.955 235.687,54.825 235.022,54.707 223.671 L 54.600 213.407 53.286 212.787 C 50.743 211.587,50.800 212.150,50.801 188.054 C 50.803 163.703,50.727 164.390,53.553 163.220 L 54.800 162.703 54.801 152.451 C 54.803 141.032,54.957 140.295,57.553 139.220 C 58.740 138.728,58.800 138.594,58.801 136.451 C 58.803 133.757,59.743 131.969,61.553 131.220 L 62.800 130.703 62.801 126.451 C 62.803 121.621,63.373 120.122,65.553 119.220 C 66.740 118.728,66.800 118.594,66.801 116.451 C 66.803 113.757,67.743 111.969,69.553 111.220 C 70.740 110.728,70.800 110.594,70.801 108.451 C 70.803 105.757,71.743 103.969,73.553 103.220 C 74.740 102.728,74.800 102.594,74.801 100.451 C 74.803 97.786,75.741 95.970,77.489 95.246 C 78.174 94.962,78.951 94.173,79.332 93.373 C 79.720 92.561,80.549 91.725,81.345 91.345 C 82.132 90.971,82.971 90.132,83.345 89.345 C 83.720 88.559,84.559 87.720,85.345 87.345 C 86.132 86.971,86.971 86.132,87.345 85.345 C 87.729 84.541,88.561 83.719,89.396 83.322 C 90.753 82.674,90.800 82.577,90.801 80.426 C 90.803 77.787,91.748 75.967,93.489 75.246 C 94.174 74.962,94.951 74.173,95.332 73.373 C 95.720 72.561,96.549 71.725,97.345 71.345 C 98.132 70.971,98.971 70.132,99.345 69.345 C 99.720 68.559,100.559 67.720,101.345 67.345 C 102.132 66.971,102.971 66.132,103.345 65.345 C 103.725 64.549,104.561 63.720,105.373 63.332 C 106.173 62.951,106.962 62.174,107.246 61.489 C 107.967 59.748,109.787 58.803,112.426 58.801 C 114.577 58.800,114.674 58.753,115.322 57.396 C 115.724 56.551,116.542 55.729,117.373 55.332 C 118.173 54.951,118.962 54.174,119.246 53.489 C 119.967 51.748,121.787 50.803,124.426 50.801 C 126.577 50.800,126.674 50.753,127.322 49.396 C 127.724 48.551,128.542 47.729,129.373 47.332 C 130.173 46.951,130.962 46.174,131.246 45.489 C 132.122 43.375,133.655 42.803,138.451 42.801 L 142.703 42.800 143.220 41.553 C 144.122 39.373,145.621 38.803,150.451 38.801 L 154.703 38.800 155.220 37.553 C 156.317 34.903,156.857 34.803,170.054 34.801 C 179.684 34.800,182.120 34.910,183.037 35.386 M141.388 85.690 C 141.281 85.971,141.240 101.590,141.297 120.400 L 141.400 154.600 148.102 154.710 L 154.804 154.819 154.702 120.110 L 154.600 85.400 148.091 85.290 C 143.104 85.206,141.537 85.299,141.388 85.690 M89.388 93.690 C 89.281 93.971,89.240 106.890,89.296 122.400 L 89.400 150.600 96.103 150.710 L 102.805 150.819 102.703 122.110 L 102.600 93.400 96.091 93.290 C 91.104 93.206,89.537 93.299,89.388 93.690 M180.928 162.746 C 180.454 163.954,179.956 164.453,178.756 164.924 L 177.200 165.536 177.200 169.708 C 177.200 175.015,176.833 176.109,174.779 176.915 C 173.210 177.532,173.200 177.550,173.200 179.708 C 173.200 182.942,172.608 184.269,170.917 184.827 C 169.835 185.184,169.357 185.654,168.905 186.804 C 168.460 187.937,167.937 188.460,166.804 188.905 C 165.662 189.354,165.184 189.837,164.835 190.893 C 164.484 191.958,164.010 192.432,162.835 192.893 C 161.653 193.358,161.187 193.827,160.827 194.917 C 160.269 196.608,158.942 197.200,155.708 197.200 C 153.550 197.200,153.532 197.210,152.915 198.779 C 152.186 200.637,150.974 201.200,147.708 201.200 C 145.550 201.200,145.532 201.210,144.915 202.779 C 143.593 206.146,137.031 206.160,135.259 202.800 C 134.852 202.030,133.952 201.125,133.257 200.789 C 132.563 200.452,131.663 199.552,131.257 198.789 C 130.852 198.025,129.947 197.122,129.246 196.783 C 127.591 195.982,126.868 194.525,126.720 191.692 L 126.600 189.400 120.072 189.290 L 113.544 189.180 112.919 190.769 C 112.185 192.638,110.980 193.200,107.708 193.200 C 105.555 193.200,105.530 193.214,104.924 194.756 C 104.460 195.939,103.951 196.455,102.804 196.905 C 101.654 197.357,101.184 197.835,100.827 198.917 C 99.708 202.307,89.060 202.216,87.259 198.800 C 86.852 198.030,85.947 197.122,85.246 196.783 C 83.591 195.982,82.868 194.525,82.720 191.694 C 82.607 189.544,82.520 189.366,81.286 188.785 C 79.315 187.857,78.842 186.551,78.713 181.680 L 78.600 177.400 72.000 177.400 L 65.400 177.400 65.400 187.953 L 65.400 198.505 66.780 199.245 C 68.764 200.309,68.973 200.889,69.198 205.954 L 69.400 210.508 70.789 211.251 C 71.552 211.660,72.452 212.563,72.789 213.257 C 73.125 213.952,74.025 214.852,74.789 215.257 C 75.552 215.663,76.453 216.581,76.790 217.297 C 77.360 218.508,77.558 218.608,79.602 218.714 C 83.854 218.935,84.748 219.779,85.153 223.954 C 85.385 226.357,85.482 226.552,86.780 227.247 C 88.764 228.308,88.973 228.888,89.198 233.954 L 89.400 238.508 90.789 239.251 C 91.552 239.660,92.452 240.563,92.789 241.257 C 93.125 241.952,94.021 242.850,94.780 243.253 C 96.567 244.201,96.905 244.864,97.176 247.954 C 97.388 250.371,97.475 250.549,98.789 251.252 C 99.552 251.660,100.453 252.581,100.791 253.297 C 101.365 254.518,101.548 254.608,103.694 254.720 C 106.548 254.869,107.989 255.595,108.786 257.286 L 109.406 258.600 114.075 258.712 L 118.745 258.825 120.237 257.212 L 121.729 255.600 130.002 255.600 L 138.275 255.600 139.961 253.600 L 141.648 251.600 145.818 251.600 L 149.988 251.600 156.794 244.794 L 163.600 237.988 163.600 235.818 C 163.600 233.705,163.653 233.603,165.600 231.961 L 167.600 230.275 167.600 222.059 L 167.600 213.844 168.675 212.722 C 169.603 211.754,170.057 211.600,171.995 211.600 L 174.241 211.600 175.118 209.795 C 175.710 208.575,176.442 207.776,177.375 207.331 C 178.173 206.951,178.962 206.174,179.246 205.489 C 179.975 203.728,181.784 202.803,184.500 202.801 L 186.800 202.800 186.801 200.500 C 186.803 197.754,187.731 195.974,189.553 195.220 L 190.800 194.703 190.801 190.451 C 190.803 185.617,191.373 184.122,193.559 183.217 L 194.813 182.698 194.706 172.049 L 194.600 161.400 188.072 161.290 L 181.544 161.180 180.928 162.746 M225.377 185.717 C 225.268 186.001,225.228 189.016,225.289 192.417 L 225.400 198.600 229.680 198.713 C 234.524 198.842,235.848 199.314,236.783 201.246 C 237.122 201.947,238.025 202.852,238.789 203.257 C 239.552 203.663,240.452 204.563,240.789 205.257 C 241.125 205.952,242.030 206.852,242.800 207.259 C 246.160 209.031,246.146 215.593,242.779 216.915 C 241.210 217.532,241.200 217.550,241.200 219.708 C 241.200 222.942,240.608 224.269,238.917 224.827 C 237.829 225.186,237.358 225.653,236.897 226.827 C 235.797 229.627,232.748 229.613,231.253 226.800 C 230.550 225.478,230.367 225.386,227.954 225.153 C 223.115 224.684,222.855 224.211,222.707 215.600 L 222.600 209.400 216.000 209.400 L 209.400 209.400 209.400 221.953 L 209.400 234.505 210.789 235.250 C 211.552 235.659,212.452 236.563,212.789 237.257 C 213.125 237.952,214.016 238.847,214.769 239.247 C 215.602 239.689,216.476 240.644,217.001 241.687 L 217.863 243.400 231.973 243.505 L 246.084 243.610 249.957 239.605 L 253.830 235.600 256.086 235.600 C 259.381 235.600,259.600 235.254,259.600 230.051 L 259.600 225.759 261.400 224.043 L 263.200 222.328 263.200 210.008 L 263.200 197.688 261.453 196.867 C 259.491 195.945,259.214 195.337,259.205 191.944 L 259.200 189.688 257.449 188.865 C 256.189 188.273,255.619 187.728,255.417 186.925 C 255.263 186.311,254.926 185.674,254.668 185.510 C 253.774 184.941,225.598 185.140,225.377 185.717 M119.371 217.029 C 119.717 217.374,120.000 217.800,120.000 217.974 C 120.000 218.148,120.475 218.765,121.055 219.345 L 122.109 220.400 130.426 220.400 C 140.183 220.400,140.000 220.330,140.000 224.059 C 140.000 226.165,139.871 226.568,138.948 227.330 C 137.780 228.297,136.633 229.416,135.343 230.848 C 134.872 231.372,133.972 232.266,133.343 232.835 C 132.714 233.404,131.809 234.349,131.330 234.935 C 129.773 236.842,120.400 236.406,120.400 234.426 C 120.400 233.230,118.198 232.000,116.045 231.994 C 113.475 231.987,113.206 231.858,112.216 230.154 C 111.817 229.469,110.931 228.583,110.246 228.184 C 109.561 227.786,108.868 227.267,108.706 227.030 C 108.196 226.283,108.348 217.412,108.880 216.880 C 109.658 216.102,118.571 216.229,119.371 217.029 " stroke="none" fill="#040404" fill-rule="evenodd"></path><path id="path3" d="M108.880 216.880 C 108.348 217.412,108.196 226.283,108.706 227.030 C 108.868 227.267,109.561 227.786,110.246 228.184 C 110.931 228.583,111.817 229.469,112.216 230.154 C 113.206 231.858,113.475 231.987,116.045 231.994 C 118.198 232.000,120.400 233.230,120.400 234.426 C 120.400 236.406,129.773 236.842,131.330 234.935 C 131.809 234.349,132.714 233.404,133.343 232.835 C 133.972 232.266,134.872 231.372,135.343 230.848 C 136.633 229.416,137.780 228.297,138.948 227.330 C 139.871 226.568,140.000 226.165,140.000 224.059 C 140.000 220.330,140.183 220.400,130.426 220.400 L 122.109 220.400 121.055 219.345 C 120.475 218.765,120.000 218.148,120.000 217.974 C 120.000 216.467,110.252 215.508,108.880 216.880 " stroke="none" fill="#fc0404" fill-rule="evenodd"></path><path id="path4" d="M156.968 35.554 C 156.291 35.967,155.504 36.867,155.220 37.553 L 154.703 38.800 150.451 38.801 C 145.621 38.803,144.122 39.373,143.220 41.553 L 142.703 42.800 138.451 42.801 C 133.655 42.803,132.122 43.375,131.246 45.489 C 130.962 46.174,130.173 46.951,129.373 47.332 C 128.542 47.729,127.724 48.551,127.322 49.396 C 126.674 50.753,126.577 50.800,124.426 50.801 C 121.787 50.803,119.967 51.748,119.246 53.489 C 118.962 54.174,118.173 54.951,117.373 55.332 C 116.542 55.729,115.724 56.551,115.322 57.396 C 114.674 58.753,114.577 58.800,112.426 58.801 C 109.787 58.803,107.967 59.748,107.246 61.489 C 106.962 62.174,106.173 62.951,105.373 63.332 C 104.561 63.720,103.725 64.549,103.345 65.345 C 102.971 66.132,102.132 66.971,101.345 67.345 C 100.559 67.720,99.720 68.559,99.345 69.345 C 98.971 70.132,98.132 70.971,97.345 71.345 C 96.549 71.725,95.720 72.561,95.332 73.373 C 94.951 74.173,94.174 74.962,93.489 75.246 C 91.748 75.967,90.803 77.787,90.801 80.426 C 90.800 82.577,90.753 82.674,89.396 83.322 C 88.561 83.719,87.729 84.541,87.345 85.345 C 86.971 86.132,86.132 86.971,85.345 87.345 C 84.559 87.720,83.720 88.559,83.345 89.345 C 82.971 90.132,82.132 90.971,81.345 91.345 C 80.549 91.725,79.720 92.561,79.332 93.373 C 78.951 94.173,78.174 94.962,77.489 95.246 C 75.741 95.970,74.803 97.786,74.801 100.451 C 74.800 102.594,74.740 102.728,73.553 103.220 C 71.743 103.969,70.803 105.757,70.801 108.451 C 70.800 110.594,70.740 110.728,69.553 111.220 C 67.743 111.969,66.803 113.757,66.801 116.451 C 66.800 118.594,66.740 118.728,65.553 119.220 C 63.373 120.122,62.803 121.621,62.801 126.451 L 62.800 130.703 61.553 131.220 C 59.743 131.969,58.803 133.757,58.801 136.451 C 58.800 138.594,58.740 138.728,57.553 139.220 C 54.957 140.295,54.803 141.032,54.801 152.451 L 54.800 162.703 53.553 163.220 C 50.727 164.390,50.803 163.703,50.801 188.054 C 50.800 212.150,50.743 211.587,53.286 212.787 L 54.600 213.407 54.707 223.671 C 54.825 235.022,54.955 235.687,57.286 236.786 L 58.600 237.406 58.713 241.683 C 58.842 246.551,59.315 247.857,61.286 248.786 L 62.600 249.406 62.713 253.683 C 62.842 258.551,63.315 259.858,65.286 260.785 C 66.520 261.366,66.607 261.544,66.720 263.694 C 66.868 266.525,67.591 267.982,69.246 268.783 C 69.947 269.122,70.852 270.025,71.257 270.789 C 71.663 271.552,72.563 272.452,73.257 272.789 C 73.952 273.125,74.852 274.025,75.257 274.789 C 75.663 275.552,76.581 276.453,77.297 276.791 C 78.518 277.365,78.608 277.548,78.720 279.694 C 78.868 282.525,79.591 283.982,81.246 284.783 C 81.947 285.122,82.852 286.025,83.257 286.789 C 83.663 287.552,84.563 288.452,85.257 288.789 C 85.952 289.125,86.852 290.025,87.257 290.789 C 87.663 291.552,88.563 292.452,89.257 292.789 C 89.952 293.125,90.852 294.025,91.257 294.789 C 91.663 295.552,92.563 296.452,93.257 296.789 C 93.952 297.125,94.852 298.030,95.259 298.800 C 96.130 300.452,97.527 301.155,100.000 301.187 C 102.659 301.222,103.306 301.497,104.304 303.021 C 105.180 304.359,105.285 304.400,107.804 304.400 L 110.401 304.400 111.838 306.400 L 113.275 308.400 115.838 308.400 L 118.401 308.400 119.838 310.400 L 121.275 312.400 123.838 312.400 L 126.401 312.400 127.838 314.400 L 129.275 316.400 133.838 316.400 L 138.401 316.400 139.838 318.400 L 141.275 320.400 147.838 320.400 L 154.401 320.400 155.838 322.400 L 157.275 324.400 161.838 324.400 L 166.401 324.400 167.838 326.400 C 169.524 328.746,170.342 328.892,171.750 327.100 C 174.092 324.118,171.519 324.400,196.364 324.400 L 218.729 324.400 219.750 323.100 C 221.980 320.260,221.637 320.400,226.364 320.400 L 230.729 320.400 231.750 319.100 C 234.023 316.205,233.402 316.400,240.364 316.400 L 246.729 316.400 247.750 315.100 C 249.882 312.385,249.856 312.400,252.500 312.397 C 254.930 312.395,255.028 312.353,256.000 310.926 C 257.623 308.543,257.879 308.400,260.529 308.397 C 262.926 308.395,263.030 308.350,264.000 306.926 C 265.623 304.542,265.878 304.400,268.529 304.399 L 271.000 304.398 272.200 302.595 C 272.860 301.604,273.763 300.695,274.206 300.576 C 274.649 300.458,275.459 299.707,276.006 298.909 C 277.627 296.543,277.883 296.400,280.529 296.397 C 282.926 296.395,283.030 296.350,284.000 294.926 C 285.623 292.542,285.878 292.400,288.529 292.399 L 291.000 292.398 292.200 290.595 C 292.860 289.604,293.763 288.695,294.206 288.576 C 294.649 288.458,295.459 287.707,296.006 286.909 C 297.629 284.539,297.881 284.400,300.548 284.400 C 303.024 284.400,303.045 284.391,304.020 282.799 C 304.559 281.919,305.572 280.853,306.271 280.430 C 306.969 280.008,307.857 279.153,308.243 278.531 C 309.358 276.733,310.008 276.400,312.407 276.400 C 315.593 276.400,316.400 275.493,316.400 271.912 L 316.400 269.275 314.400 267.838 C 313.300 267.048,312.400 266.143,312.400 265.828 C 312.400 264.944,310.397 263.730,308.400 263.402 C 305.954 263.001,305.209 262.546,304.724 261.155 C 304.461 260.399,303.749 259.684,302.756 259.177 L 301.200 258.384 301.191 253.892 C 301.181 248.918,300.919 248.249,298.500 247.033 L 297.200 246.379 297.191 237.890 C 297.181 228.500,297.148 228.364,294.500 227.033 C 293.244 226.402,293.200 226.294,293.191 223.890 C 293.181 221.099,292.630 220.103,290.500 219.033 L 289.200 218.379 289.191 213.890 C 289.181 208.918,288.918 208.249,286.500 207.033 L 285.200 206.379 285.191 201.890 C 285.181 196.918,284.918 196.249,282.500 195.033 L 281.200 194.379 281.191 181.890 C 281.181 168.055,281.246 168.413,278.500 167.033 L 277.200 166.379 277.191 151.890 C 277.181 135.829,277.277 136.429,274.500 135.033 L 273.200 134.379 273.191 127.890 C 273.181 120.714,273.062 120.321,270.500 119.033 L 269.200 118.379 269.191 113.890 C 269.181 108.918,268.918 108.249,266.500 107.033 C 265.244 106.402,265.200 106.294,265.191 103.890 C 265.181 101.099,264.630 100.103,262.500 99.033 C 261.244 98.402,261.200 98.294,261.191 95.890 C 261.181 93.099,260.630 92.103,258.500 91.033 C 257.244 90.402,257.200 90.294,257.191 87.890 C 257.181 85.090,256.631 84.104,254.470 83.018 C 253.695 82.627,252.973 81.869,252.739 81.197 C 252.495 80.498,251.761 79.749,250.869 79.290 C 250.057 78.872,249.126 77.965,248.789 77.264 C 248.452 76.566,247.552 75.663,246.789 75.257 C 246.025 74.852,245.125 73.952,244.789 73.257 C 244.452 72.563,243.552 71.660,242.789 71.252 C 241.480 70.552,241.386 70.361,241.153 67.954 C 240.748 63.779,239.854 62.935,235.602 62.714 C 233.558 62.608,233.360 62.508,232.790 61.297 C 232.453 60.581,231.552 59.663,230.789 59.257 C 230.025 58.852,229.125 57.952,228.789 57.257 C 228.452 56.563,227.552 55.663,226.789 55.257 C 226.025 54.852,225.122 53.947,224.783 53.246 C 223.982 51.591,222.525 50.868,219.694 50.720 C 217.544 50.607,217.366 50.520,216.785 49.286 C 215.858 47.315,214.551 46.842,209.683 46.713 L 205.406 46.600 204.792 45.297 C 204.454 44.581,203.552 43.663,202.789 43.257 C 202.025 42.852,201.122 41.947,200.783 41.246 C 199.764 39.140,198.659 38.833,191.677 38.710 L 185.407 38.600 184.786 37.286 C 183.651 34.880,183.179 34.800,170.054 34.801 C 159.162 34.803,158.100 34.864,156.968 35.554 M182.800 36.513 C 183.130 36.781,183.904 37.675,184.520 38.500 L 185.641 40.000 191.978 40.000 L 198.316 40.000 199.258 41.056 C 201.238 43.277,202.221 44.266,202.802 44.627 C 203.134 44.832,203.908 45.675,204.523 46.500 L 205.641 48.000 209.920 48.013 C 214.559 48.027,214.718 48.086,216.520 50.500 C 217.583 51.923,217.758 52.001,219.920 52.013 C 222.386 52.026,222.950 52.318,224.334 54.289 C 224.831 54.998,225.728 55.866,226.325 56.220 C 226.923 56.573,227.806 57.463,228.288 58.197 C 228.770 58.932,229.667 59.835,230.282 60.204 C 230.897 60.573,231.893 61.578,232.496 62.438 C 233.559 63.952,233.664 64.000,235.942 64.000 C 239.265 64.000,240.400 65.135,240.400 68.458 C 240.400 70.736,240.448 70.841,241.962 71.904 C 242.822 72.507,243.827 73.503,244.196 74.118 C 244.565 74.733,245.468 75.630,246.203 76.112 C 246.937 76.594,247.837 77.494,248.203 78.112 C 248.568 78.730,249.468 79.630,250.203 80.112 C 250.937 80.594,251.835 81.490,252.197 82.103 C 252.560 82.716,253.338 83.518,253.928 83.883 C 255.853 85.078,256.381 86.044,256.395 88.400 C 256.406 90.282,256.557 90.716,257.439 91.400 C 260.052 93.428,260.400 94.010,260.404 96.358 C 260.408 98.291,260.550 98.710,261.439 99.400 C 264.052 101.428,264.400 102.010,264.404 104.358 C 264.408 106.291,264.550 106.710,265.439 107.400 C 268.362 109.668,268.400 109.757,268.404 114.358 C 268.408 118.441,268.447 118.630,269.439 119.400 C 272.492 121.770,272.400 121.490,272.404 128.358 C 272.408 134.590,272.410 134.601,273.439 135.400 C 274.006 135.840,274.904 136.631,275.435 137.158 L 276.400 138.117 276.404 152.358 L 276.408 166.600 277.439 167.400 C 278.006 167.840,278.904 168.631,279.435 169.158 L 280.400 170.117 280.404 182.358 L 280.408 194.600 281.439 195.400 C 284.362 197.668,284.400 197.757,284.404 202.358 C 284.408 206.441,284.447 206.630,285.439 207.400 C 288.362 209.668,288.400 209.757,288.404 214.358 C 288.408 218.441,288.447 218.630,289.439 219.400 C 292.052 221.428,292.400 222.010,292.404 224.358 C 292.408 226.291,292.550 226.710,293.439 227.400 C 296.564 229.825,296.400 229.217,296.404 238.358 L 296.408 246.600 297.439 247.400 C 300.359 249.666,300.400 249.762,300.400 254.313 C 300.400 258.484,301.138 260.400,302.744 260.400 C 302.910 260.400,303.600 261.185,304.276 262.145 C 305.347 263.664,305.812 263.965,307.853 264.463 C 309.972 264.979,310.291 265.199,311.135 266.727 C 311.747 267.833,312.549 268.619,313.455 268.997 L 314.839 269.575 314.719 272.088 L 314.600 274.600 311.867 274.800 C 309.337 274.985,309.047 275.104,307.970 276.400 C 306.432 278.250,306.038 278.642,304.500 279.850 C 303.785 280.412,303.200 281.196,303.200 281.593 C 303.200 282.517,302.427 282.800,299.905 282.800 C 297.683 282.800,295.220 284.218,295.178 285.520 C 295.166 285.894,294.312 286.740,293.281 287.400 C 292.249 288.060,291.338 288.960,291.256 289.400 C 291.044 290.543,290.481 290.787,288.038 290.794 C 285.633 290.801,283.200 292.200,283.200 293.578 C 283.200 294.517,282.437 294.800,279.905 294.800 C 277.683 294.800,275.220 296.218,275.178 297.520 C 275.166 297.894,274.312 298.740,273.281 299.400 C 272.249 300.060,271.338 300.960,271.256 301.400 C 271.044 302.543,270.481 302.787,268.038 302.794 C 265.633 302.801,263.200 304.200,263.200 305.578 C 263.200 306.517,262.437 306.800,259.905 306.800 C 257.634 306.800,255.200 308.237,255.200 309.578 C 255.200 310.524,254.436 310.800,251.821 310.800 C 249.455 310.800,248.010 311.646,246.982 313.635 L 246.379 314.800 240.044 314.800 C 233.051 314.800,232.332 315.025,230.982 317.635 L 230.379 318.800 226.044 318.800 C 221.263 318.800,220.234 319.213,218.982 321.635 L 218.379 322.800 196.044 322.800 C 171.082 322.800,172.533 322.636,170.982 325.635 C 170.192 327.162,169.687 327.105,168.978 325.410 C 168.095 323.296,166.730 322.800,161.799 322.800 L 157.559 322.800 156.978 321.410 C 156.022 319.122,154.891 318.800,147.799 318.800 L 141.559 318.800 140.978 317.410 C 140.095 315.296,138.730 314.800,133.799 314.800 L 129.559 314.800 128.978 313.410 C 128.230 311.619,126.605 310.800,123.799 310.800 C 121.620 310.800,121.543 310.762,120.978 309.410 C 120.230 307.619,118.605 306.800,115.799 306.800 C 113.620 306.800,113.543 306.762,112.978 305.410 C 112.244 303.652,110.612 302.800,107.980 302.800 C 106.208 302.800,105.765 302.633,104.800 301.600 C 103.761 300.488,103.474 300.400,100.882 300.400 C 98.353 300.400,97.993 300.297,97.142 299.333 C 96.624 298.746,95.570 297.664,94.800 296.928 C 94.030 296.191,93.274 295.456,93.120 295.294 C 92.966 295.133,92.120 294.280,91.240 293.400 C 90.360 292.520,89.460 291.620,89.240 291.400 C 89.020 291.180,88.066 290.226,87.120 289.280 C 86.174 288.334,85.267 287.434,85.106 287.280 C 84.944 287.126,84.209 286.370,83.472 285.600 C 82.736 284.830,81.654 283.776,81.067 283.258 C 80.138 282.438,80.000 282.011,80.000 279.954 C 80.000 277.662,79.954 277.560,78.438 276.496 C 77.578 275.893,76.573 274.897,76.204 274.282 C 75.835 273.667,74.932 272.770,74.197 272.288 C 73.463 271.806,72.573 270.923,72.220 270.325 C 71.866 269.728,70.998 268.831,70.289 268.334 C 68.318 266.950,68.026 266.386,68.013 263.920 C 68.001 261.758,67.923 261.583,66.500 260.520 C 64.086 258.718,64.027 258.559,64.013 253.920 L 64.000 249.641 62.500 248.520 C 60.086 246.718,60.027 246.559,60.013 241.920 L 60.000 237.641 58.500 236.520 C 55.929 234.600,56.027 235.094,56.013 223.920 L 56.000 213.641 54.500 212.520 C 53.675 211.904,52.781 211.130,52.513 210.800 C 52.143 210.345,52.022 204.851,52.013 188.050 L 52.000 165.900 54.000 164.086 L 56.000 162.271 56.000 152.086 L 56.000 141.900 58.000 140.086 C 59.935 138.331,60.000 138.200,60.000 136.086 C 60.000 133.971,60.065 133.841,62.000 132.086 L 64.000 130.271 64.000 126.086 L 64.000 121.900 66.000 120.086 C 67.935 118.331,68.000 118.200,68.000 116.086 C 68.000 113.971,68.065 113.841,70.000 112.086 C 71.935 110.331,72.000 110.200,72.000 108.086 C 72.000 105.971,72.065 105.841,74.000 104.086 C 75.920 102.344,76.000 102.186,76.000 100.153 L 76.000 98.036 84.000 90.079 L 92.000 82.122 92.000 80.094 L 92.000 78.066 101.033 69.033 L 110.066 60.000 112.113 60.000 L 114.160 60.000 118.077 56.000 L 121.994 52.000 124.077 52.000 L 126.160 52.000 130.077 48.000 L 133.994 44.000 138.133 44.000 L 142.271 44.000 144.086 42.000 L 145.900 40.000 150.086 40.000 L 154.271 40.000 156.086 38.000 L 157.900 36.000 170.050 36.013 C 178.989 36.022,182.359 36.154,182.800 36.513 M141.029 85.029 C 139.981 86.076,140.081 154.387,141.131 155.338 C 142.439 156.521,153.975 156.304,155.130 155.074 L 156.000 154.148 156.000 119.936 C 156.000 87.300,155.966 85.693,155.269 85.062 C 154.208 84.102,141.983 84.074,141.029 85.029 M154.702 120.110 L 154.804 154.819 148.102 154.710 L 141.400 154.600 141.297 120.400 C 141.240 101.590,141.281 85.971,141.388 85.690 C 141.537 85.299,143.104 85.206,148.091 85.290 L 154.600 85.400 154.702 120.110 M89.029 93.029 C 87.983 94.074,88.082 150.388,89.131 151.338 C 90.439 152.521,101.975 152.304,103.130 151.074 L 104.000 150.148 104.000 121.936 C 104.000 95.113,103.964 93.691,103.269 93.062 C 102.208 92.102,89.983 92.074,89.029 93.029 M102.703 122.110 L 102.805 150.819 96.103 150.710 L 89.400 150.600 89.296 122.400 C 89.240 106.890,89.281 93.971,89.388 93.690 C 89.537 93.299,91.104 93.206,96.091 93.290 L 102.600 93.400 102.703 122.110 M181.116 161.053 C 180.450 161.896,177.896 164.450,177.053 165.116 C 176.521 165.536,176.400 166.435,176.400 169.974 L 176.400 174.317 174.900 175.572 C 174.075 176.263,173.175 177.009,172.900 177.230 C 172.603 177.469,172.400 178.581,172.400 179.974 C 172.400 182.192,172.320 182.384,170.900 183.570 C 170.075 184.260,169.252 184.986,169.072 185.184 C 168.891 185.382,168.024 186.264,167.144 187.144 C 165.243 189.044,165.073 189.214,163.072 191.215 C 162.231 192.056,161.382 192.891,161.184 193.072 C 160.986 193.252,160.260 194.075,159.570 194.900 C 158.384 196.320,158.192 196.400,155.974 196.400 C 154.581 196.400,153.469 196.603,153.230 196.900 C 150.373 200.454,150.454 200.400,147.974 200.400 C 146.581 200.400,145.469 200.603,145.230 200.900 C 142.417 204.399,142.416 204.400,140.201 204.400 C 138.410 204.400,137.939 204.236,137.142 203.333 C 136.624 202.746,135.570 201.664,134.800 200.928 C 133.082 199.285,133.115 199.318,131.472 197.600 C 130.736 196.830,129.654 195.776,129.067 195.258 C 128.144 194.443,128.000 194.005,128.000 192.020 C 128.000 188.480,127.824 188.400,120.084 188.400 C 115.403 188.400,113.521 188.537,113.230 188.900 C 110.373 192.454,110.454 192.400,107.974 192.400 C 106.285 192.400,105.488 192.582,105.116 193.053 C 104.669 193.619,101.944 196.403,101.112 197.144 C 100.953 197.285,100.260 198.075,99.570 198.900 L 98.317 200.400 94.201 200.400 C 90.256 200.400,90.045 200.356,89.142 199.344 C 87.942 197.998,86.402 196.458,85.056 195.258 C 84.143 194.443,84.000 194.001,84.000 191.978 C 84.000 189.743,83.934 189.592,82.500 188.520 C 80.089 186.719,80.027 186.555,80.013 181.962 C 79.995 176.188,80.298 176.400,72.097 176.400 C 63.599 176.400,64.400 175.171,64.400 188.208 L 64.400 198.759 65.900 199.880 C 68.315 201.683,68.373 201.839,68.387 206.504 L 68.400 210.808 69.948 211.904 C 70.799 212.507,71.871 213.570,72.329 214.267 C 72.788 214.963,73.667 215.835,74.282 216.204 C 74.897 216.573,75.893 217.578,76.496 218.438 C 77.559 219.952,77.664 220.000,79.942 220.000 C 83.256 220.000,84.400 221.138,84.400 224.434 C 84.400 226.655,84.467 226.809,85.900 227.880 C 88.314 229.682,88.373 229.841,88.387 234.480 L 88.400 238.759 89.900 239.877 C 90.725 240.492,91.568 241.266,91.773 241.598 C 92.134 242.179,93.123 243.162,95.344 245.142 C 96.260 245.959,96.400 246.397,96.400 248.446 C 96.400 250.723,96.454 250.846,97.917 251.887 C 98.751 252.481,99.919 253.649,100.513 254.483 C 101.546 255.935,101.692 256.001,103.896 256.013 C 106.418 256.027,106.846 256.259,108.550 258.539 L 109.700 260.078 114.792 259.939 L 119.884 259.800 120.978 258.500 L 122.071 257.200 129.976 257.200 C 138.379 257.200,140.193 256.905,140.631 255.467 C 141.239 253.468,141.875 253.200,146.002 253.200 C 150.413 253.200,152.250 252.719,152.630 251.467 C 153.000 250.244,154.310 248.909,155.411 248.633 C 155.926 248.504,156.469 247.994,156.619 247.499 C 156.999 246.247,158.299 244.912,159.411 244.633 C 159.926 244.504,160.469 243.994,160.619 243.499 C 160.997 242.252,162.298 240.912,163.398 240.636 C 164.520 240.355,165.200 238.607,165.200 236.002 C 165.200 234.026,165.796 233.139,167.467 232.631 C 168.903 232.194,169.200 230.378,169.200 222.020 C 169.200 213.112,169.168 213.206,172.180 213.187 C 174.482 213.173,175.351 212.666,175.737 211.116 C 176.361 208.610,181.811 204.000,184.150 204.000 C 187.027 204.000,188.000 202.995,188.000 200.024 C 188.000 197.984,188.079 197.828,190.000 196.086 L 192.000 194.271 192.000 190.086 L 192.000 185.900 194.000 184.086 L 196.000 182.271 196.000 171.998 C 196.000 162.553,195.941 161.671,195.269 161.062 C 194.184 160.081,181.890 160.073,181.116 161.053 M194.706 172.049 L 194.813 182.698 193.559 183.217 C 191.373 184.122,190.803 185.617,190.801 190.451 L 190.800 194.703 189.553 195.220 C 187.731 195.974,186.803 197.754,186.801 200.500 L 186.800 202.800 184.500 202.801 C 181.784 202.803,179.975 203.728,179.246 205.489 C 178.962 206.174,178.173 206.951,177.375 207.331 C 176.442 207.776,175.710 208.575,175.118 209.795 L 174.241 211.600 171.995 211.600 C 170.057 211.600,169.603 211.754,168.675 212.722 L 167.600 213.844 167.600 222.059 L 167.600 230.275 165.600 231.961 C 163.653 233.603,163.600 233.705,163.600 235.818 L 163.600 237.988 156.794 244.794 L 149.988 251.600 145.818 251.600 L 141.648 251.600 139.961 253.600 L 138.275 255.600 130.002 255.600 L 121.729 255.600 120.237 257.212 L 118.745 258.825 114.075 258.712 L 109.406 258.600 108.786 257.286 C 107.989 255.595,106.548 254.869,103.694 254.720 C 101.548 254.608,101.365 254.518,100.791 253.297 C 100.453 252.581,99.552 251.660,98.789 251.252 C 97.475 250.549,97.388 250.371,97.176 247.954 C 96.905 244.864,96.567 244.201,94.780 243.253 C 94.021 242.850,93.125 241.952,92.789 241.257 C 92.452 240.563,91.552 239.660,90.789 239.251 L 89.400 238.508 89.198 233.954 C 88.973 228.888,88.764 228.308,86.780 227.247 C 85.482 226.552,85.385 226.357,85.153 223.954 C 84.748 219.779,83.854 218.935,79.602 218.714 C 77.558 218.608,77.360 218.508,76.790 217.297 C 76.453 216.581,75.552 215.663,74.789 215.257 C 74.025 214.852,73.125 213.952,72.789 213.257 C 72.452 212.563,71.552 211.660,70.789 211.251 L 69.400 210.508 69.198 205.954 C 68.973 200.889,68.764 200.309,66.780 199.245 L 65.400 198.505 65.400 187.953 L 65.400 177.400 72.000 177.400 L 78.600 177.400 78.713 181.680 C 78.842 186.551,79.315 187.857,81.286 188.785 C 82.520 189.366,82.607 189.544,82.720 191.694 C 82.868 194.525,83.591 195.982,85.246 196.783 C 85.947 197.122,86.852 198.030,87.259 198.800 C 89.060 202.216,99.708 202.307,100.827 198.917 C 101.184 197.835,101.654 197.357,102.804 196.905 C 103.951 196.455,104.460 195.939,104.924 194.756 C 105.530 193.214,105.555 193.200,107.708 193.200 C 110.980 193.200,112.185 192.638,112.919 190.769 L 113.544 189.180 120.072 189.290 L 126.600 189.400 126.720 191.692 C 126.868 194.525,127.591 195.982,129.246 196.783 C 129.947 197.122,130.852 198.025,131.257 198.789 C 131.663 199.552,132.563 200.452,133.257 200.789 C 133.952 201.125,134.852 202.030,135.259 202.800 C 137.031 206.160,143.593 206.146,144.915 202.779 C 145.532 201.210,145.550 201.200,147.708 201.200 C 150.974 201.200,152.186 200.637,152.915 198.779 C 153.532 197.210,153.550 197.200,155.708 197.200 C 158.942 197.200,160.269 196.608,160.827 194.917 C 161.187 193.827,161.653 193.358,162.835 192.893 C 164.010 192.432,164.484 191.958,164.835 190.893 C 165.184 189.837,165.662 189.354,166.804 188.905 C 167.937 188.460,168.460 187.937,168.905 186.804 C 169.357 185.654,169.835 185.184,170.917 184.827 C 172.608 184.269,173.200 182.942,173.200 179.708 C 173.200 177.550,173.210 177.532,174.779 176.915 C 176.833 176.109,177.200 175.015,177.200 169.708 L 177.200 165.536 178.756 164.924 C 179.956 164.453,180.454 163.954,180.928 162.746 L 181.544 161.180 188.072 161.290 L 194.600 161.400 194.706 172.049 M225.029 185.029 C 224.509 185.548,224.400 186.782,224.400 192.167 C 224.400 200.317,224.170 200.000,230.090 200.000 C 234.166 200.000,234.349 200.038,235.258 201.067 C 235.776 201.654,236.830 202.736,237.600 203.472 C 239.318 205.115,239.285 205.082,240.928 206.800 C 241.664 207.570,242.746 208.624,243.333 209.142 C 244.236 209.939,244.400 210.410,244.400 212.201 C 244.400 214.416,244.399 214.417,240.900 217.230 C 240.603 217.469,240.400 218.581,240.400 219.974 C 240.400 222.192,240.320 222.384,238.900 223.570 C 237.179 225.009,237.270 224.919,235.522 226.891 C 234.031 228.572,233.836 228.519,231.880 225.900 C 230.809 224.467,230.655 224.400,228.434 224.400 C 224.360 224.400,224.000 223.718,224.000 216.007 C 224.000 207.869,224.552 208.400,216.097 208.400 C 207.540 208.400,208.400 206.855,208.400 222.232 L 208.400 234.808 209.962 235.904 C 210.822 236.507,211.827 237.503,212.196 238.118 C 212.565 238.733,213.480 239.633,214.229 240.118 C 214.978 240.603,215.886 241.630,216.247 242.400 C 217.647 245.391,216.571 245.200,232.002 245.200 C 246.757 245.200,248.224 245.041,248.636 243.398 C 248.911 242.304,250.251 240.998,251.480 240.626 C 251.963 240.479,252.480 239.963,252.627 239.480 C 253.142 237.787,254.020 237.200,256.036 237.200 C 260.499 237.200,261.171 236.330,261.187 230.529 L 261.200 226.058 262.500 225.041 L 263.800 224.024 263.920 210.891 L 264.040 197.759 262.020 196.056 C 260.047 194.392,260.000 194.302,260.000 192.162 C 260.000 189.985,259.984 189.956,257.214 187.186 L 254.428 184.400 240.042 184.400 C 227.498 184.400,225.577 184.480,225.029 185.029 M254.668 185.510 C 254.926 185.674,255.263 186.311,255.417 186.925 C 255.619 187.728,256.189 188.273,257.449 188.865 L 259.200 189.688 259.205 191.944 C 259.214 195.337,259.491 195.945,261.453 196.867 L 263.200 197.688 263.200 210.008 L 263.200 222.328 261.400 224.043 L 259.600 225.759 259.600 230.051 C 259.600 235.254,259.381 235.600,256.086 235.600 L 253.830 235.600 249.957 239.605 L 246.084 243.610 231.973 243.505 L 217.863 243.400 217.001 241.687 C 216.476 240.644,215.602 239.689,214.769 239.247 C 214.016 238.847,213.125 237.952,212.789 237.257 C 212.452 236.563,211.552 235.659,210.789 235.250 L 209.400 234.505 209.400 221.953 L 209.400 209.400 216.000 209.400 L 222.600 209.400 222.707 215.600 C 222.855 224.211,223.115 224.684,227.954 225.153 C 230.367 225.386,230.550 225.478,231.253 226.800 C 232.748 229.613,235.797 229.627,236.897 226.827 C 237.358 225.653,237.829 225.186,238.917 224.827 C 240.608 224.269,241.200 222.942,241.200 219.708 C 241.200 217.550,241.210 217.532,242.779 216.915 C 246.146 215.593,246.160 209.031,242.800 207.259 C 242.030 206.852,241.125 205.952,240.789 205.257 C 240.452 204.563,239.552 203.663,238.789 203.257 C 238.025 202.852,237.122 201.947,236.783 201.246 C 235.848 199.314,234.524 198.842,229.680 198.713 L 225.400 198.600 225.289 192.417 C 225.228 189.016,225.268 186.001,225.377 185.717 C 225.598 185.140,253.774 184.941,254.668 185.510 " stroke="none" fill="#3c8480" fill-rule="evenodd"></path></g></svg>